<?xml version="1.0" encoding="UTF-8" standalone="no"?>
<!-- Created with Inkscape (http://www.inkscape.org/) -->
<svg
   xmlns:dc="http://purl.org/dc/elements/1.1/"
   xmlns:cc="http://creativecommons.org/ns#"
   xmlns:rdf="http://www.w3.org/1999/02/22-rdf-syntax-ns#"
   xmlns:svg="http://www.w3.org/2000/svg"
   xmlns="http://www.w3.org/2000/svg"
   xmlns:sodipodi="http://sodipodi.sourceforge.net/DTD/sodipodi-0.dtd"
   xmlns:inkscape="http://www.inkscape.org/namespaces/inkscape"
   width="150"
   height="50"
   id="svg2583"
   sodipodi:version="0.32"
   inkscape:version="0.46"
   version="1.0"
   inkscape:export-filename="/home/piotrek/asi-logo.png"
   inkscape:export-xdpi="121"
   inkscape:export-ydpi="121"
   sodipodi:docname="asi-logo.svg"
   inkscape:output_extension="org.inkscape.output.svg.inkscape">
  <defs
     id="defs2585">
    <inkscape:perspective
       sodipodi:type="inkscape:persp3d"
       inkscape:vp_x="0 : 526.18109 : 1"
       inkscape:vp_y="0 : 1000 : 0"
       inkscape:vp_z="744.09448 : 526.18109 : 1"
       inkscape:persp3d-origin="372.04724 : 350.78739 : 1"
       id="perspective2591" />
  </defs>
  <sodipodi:namedview
     id="base"
     pagecolor="#ffffff"
     bordercolor="#666666"
     borderopacity="1.0"
     gridtolerance="10000"
     guidetolerance="10"
     objecttolerance="10"
     inkscape:pageopacity="0.0"
     inkscape:pageshadow="2"
     inkscape:zoom="6.11"
     inkscape:cx="75.792003"
     inkscape:cy="10.83391"
     inkscape:document-units="px"
     inkscape:current-layer="layer1"
     showgrid="false"
     showguides="true"
     inkscape:guide-bbox="true"
     inkscape:window-width="1279"
     inkscape:window-height="748"
     inkscape:window-x="1"
     inkscape:window-y="23" />
  <metadata
     id="metadata2588">
    <rdf:RDF>
      <cc:Work
         rdf:about="">
        <dc:format>image/svg+xml</dc:format>
        <dc:type
           rdf:resource="http://purl.org/dc/dcmitype/StillImage" />
      </cc:Work>
    </rdf:RDF>
  </metadata>
  <g
     inkscape:label="Layer 1"
     inkscape:groupmode="layer"
     id="layer1">
    <g
       id="g5340"
       inkscape:export-filename="/home/szc/_roboczy/_asi/asi_nowe_loga.png"
       inkscape:export-xdpi="75.061707"
       inkscape:export-ydpi="75.061707"
       transform="matrix(0.4295028,0,0,0.4295028,-8.5900487,-232.99754)">
      <path
         inkscape:export-ydpi="75"
         inkscape:export-xdpi="75"
         inkscape:export-filename="/home/szc/_roboczy/_asi/asi_nowe_loga.png"
         sodipodi:nodetypes="cccccccccccccccccccccccccczzccccccccccccccccccccczcssscczzcczccccccccccccccccccccssssssscccsczcccccccscccccccccccccccccccccccccccccccccccccccccccccccccscccccccccczccccccccccscccsscccc"
         id="path19847"
         d="M 248.00074,591.53545 L 249.9342,589.59057 L 251.91109,589.59057 L 254.03225,587.50255 L 255.84209,587.50255 L 257.8419,585.53737 L 261.85971,585.53737 L 263.81339,587.50255 L 269.83271,587.50255 L 271.98699,589.64687 L 271.98699,593.71532 L 275.69237,597.57419 L 287.77573,597.57419 L 289.7294,599.53938 L 295.56933,599.53938 L 295.56933,603.46978 L 293.50113,603.46978 L 291.63895,605.33196 L 291.63895,607.523 L 287.47593,607.523 L 283.62717,609.48819 L 274.58,609.48819 C 274.58,609.48819 273.89045,610.0943 273.85056,611.74952 L 273.81033,613.41858 L 283.77817,613.41858 L 283.77817,643.14218 C 283.77817,643.14218 251.89309,643.0812 250.56871,643.06315 C 249.2624,643.04511 247.98788,641.21691 248.00009,640.11036 C 248.01228,639.00386 248.00074,591.53545 248.00074,591.53545 z M 329.25561,633.91898 L 325.75263,637.24659 L 321.85382,637.24659 L 321.85382,633.20173 C 321.85382,633.20173 325.47256,631.22818 326.14015,631.22818 L 327.25812,631.22818 L 327.25812,626.61683 L 325.1701,624.53965 L 325.1701,622.56327 L 323.26087,620.66525 L 321.23971,620.66525 L 321.23592,618.76146 L 307.41001,604.82085 L 305.45401,604.82085 L 301.3421,600.70358 L 301.3421,596.92849 L 303.39853,594.87204 L 305.40013,594.87204 L 309.34738,590.90747 C 309.34738,590.90747 305.65274,585.44125 303.71052,583.60745 C 302.95972,584.5571 302.72851,585.03963 301.39409,585.68193 C 300.02786,586.33954 300.17471,585.98669 298.67245,586.91966 C 297.87857,587.37229 296.25472,586.10933 297.98243,585.26846 C 299.98805,584.29235 300.12708,583.95973 300.23109,583.61731 C 300.3997,583.06228 299.87461,583.32119 298.36463,583.78426 C 297.41297,584.07609 297.84226,584.02219 296.69743,584.14636 C 296.41306,584.54352 294.71454,586.08264 293.95842,586.36695 C 293.39798,587.07746 293.38851,587.07342 293.03489,587.39378 C 291.66472,588.63509 290.57454,586.66714 291.58301,586.26622 C 292.57515,585.8718 292.30487,585.29269 293.00861,584.6696 C 294.15379,583.3749 295.30207,582.11166 296.27274,581.24037 C 297.67127,580.42286 299.81886,579.53647 301.69985,578.9531 C 303.7442,578.31906 305.23868,580.0719 305.23868,580.0719 L 311.47095,586.88843 L 317.25332,586.88843 L 319.27451,584.8567 L 319.27451,582.8515 L 321.23957,581.05426 L 321.23971,579.04758 L 319.27451,577.2731 L 319.27451,569.18784 L 317.24789,567.24616 L 315.27693,567.23647 L 313.32327,565.27127 L 311.3266,565.27127 L 307.40034,569.20167 L 305.3953,569.20167 L 305.3953,567.17226 L 301.3421,563.12463 L 301.3421,557.2205 L 299.3769,555.26682 L 299.3769,553.27141 C 299.3769,553.27141 303.15712,548.80364 306.94352,547.94333 C 307.48257,547.82085 309.3575,547.44188 310.58886,547.43277 C 312.79563,547.41644 312.83557,547.42081 313.37967,547.73782 C 313.68325,547.9147 315.51606,548.63236 315.65118,548.69073 C 316.68991,549.1396 317.48675,549.48499 317.62858,549.70408 C 317.7704,549.92317 318.10549,550.43405 318.37322,550.83937 C 318.64095,551.24469 318.99115,551.98737 319.15144,552.48975 C 319.42104,553.33468 321.45343,557.43706 323.34531,559.33189 L 325.22853,561.21806 L 330.09669,561.21806 C 333.63703,561.21806 336.1439,561.50502 338.12809,562.28802 C 340.59645,563.26209 343.23595,565.09627 346.80789,568.72279 C 346.80789,568.72279 350.21736,572.29779 351.95228,574.69034 C 353.68722,577.08287 355.01649,581.59929 355.01649,584.02939 L 355.01649,586.88843 L 356.88862,586.88843 L 358.85383,584.92323 L 364.90388,584.92596 L 368.89568,589.07945 L 368.89568,591.06448 C 368.89568,591.06448 366.71618,591.07064 366.29034,591.48421 L 364.96529,592.99357 L 364.96529,599.04809 L 362.94382,599.04809 L 360.93186,597.04658 L 358.94687,599.02077 L 358.94687,606.76588 L 354.8735,610.83926 L 352.88382,610.83926 L 350.96328,612.7598 L 350.96328,614.73988 L 348.99808,616.70508 L 348.99808,630.55807 L 351.02983,632.57925 L 364.96529,632.57925 L 364.96529,636.50964 L 360.86741,636.50964 L 358.90223,638.47484 L 347.05384,638.47484 L 345.19051,640.32011 L 345.19051,642.52806 L 341.01448,642.52806 L 341.01448,636.50964 L 337.03942,636.50964 L 335.08358,638.46547 L 333.09229,638.53625 L 331.12709,642.51558 L 329.22331,642.52806 L 329.25561,
633.91898 z M 342.61119,626.32721 L 344.33074,624.58362 L 344.33074,614.27835 L 342.66931,614.27835 L 339.2368,610.83926 L 338.23197,610.83926 L 333.85306,612.55881 L 330.51874,612.55881 L 328.73202,610.784 L 328.73202,607.27735 L 327.06728,607.27735 L 325.36091,605.55779 L 323.57338,605.55779 L 323.57338,608.94163 L 325.41574,610.7717 L 325.41574,612.50399 L 327.1353,614.21036 L 327.1353,617.73196 L 330.51297,621.02359 L 333.95822,621.03372 L 334.83457,621.9242 C 335.58721,622.68899 335.83383,623.0615 336.58173,624.56329 C 337.41969,626.24592 337.45255,626.34546 337.45255,627.20095 L 337.45255,628.08997 L 339.1041,629.75428 L 342.61119,629.75428 L 342.61119,626.32721 z M 338.43516,582.76247 L 336.7156,581.22291 L 336.7156,579.45095 L 334.99609,577.74458 L 333.94313,574.23809 C 333.28184,574.29476 332.88584,574.48819 332.17708,575.23416 C 331.4683,575.98014 331.05694,577.86988 331.05694,577.86988 L 328.9645,589.49681 L 338.43516,589.83623 L 338.43516,582.76247 z M 268.48649,585.05744 L 260.49712,585.04607 L 258.54344,583.08087 L 250.6155,583.08087 L 250.6155,570.95519 L 252.67281,570.88469 C 254.93374,570.80721 255.78002,570.64044 257.72623,569.88882 C 260.6321,568.76657 264.02426,566.64563 267.93378,563.50659 L 268.48649,563.06281 L 274.41483,563.06044 C 274.41483,563.06044 274.5637,563.98339 274.56462,564.43591 C 274.5685,566.33471 275.08861,569.22156 276.45227,574.91303 C 277.71424,580.18015 278.13572,582.58824 278.31714,585.56807 L 278.39752,586.88843 L 270.45168,586.88508 L 268.48649,585.05744 z"
         style="fill:#602600;fill-opacity:1" />
      <g
         inkscape:export-ydpi="75"
         inkscape:export-xdpi="75"
         inkscape:export-filename="/home/szc/_roboczy/_asi/asi_nowe_loga.png"
         id="g19849"
         transform="translate(-135.7215,-124.2)">
        <rect
           style="fill:#863601;fill-opacity:1;fill-rule:evenodd;stroke:none;stroke-width:0.5;stroke-linecap:butt;stroke-miterlimit:4;stroke-dasharray:none;stroke-dashoffset:0;stroke-opacity:1"
           id="rect19851"
           width="21.554968"
           height="76.590858"
           x="155.72151"
           y="691.02185"
           ry="7.0736523"
           rx="7.0736523" />
        <rect
           style="fill:#9a3d00;fill-opacity:1;fill-rule:evenodd;stroke:none;stroke-width:0.5;stroke-linecap:butt;stroke-miterlimit:4;stroke-dasharray:none;stroke-dashoffset:0;stroke-opacity:1"
           id="rect19853"
           width="21.554989"
           height="22"
           x="181.08029"
           y="720.25421"
           ry="7.0736527"
           rx="7.0736523" />
        <rect
           style="fill:#d65502;fill-opacity:1;fill-rule:evenodd;stroke:none;stroke-width:0.5;stroke-linecap:butt;stroke-miterlimit:4;stroke-dasharray:none;stroke-dashoffset:0;stroke-opacity:1"
           id="rect19855"
           width="21.554897"
           height="59.134159"
           x="669.98169"
           y="-329.89328"
           ry="7.0736523"
           rx="7.0736523"
           transform="matrix(0,1,-1,0,0,0)" />
        <rect
           rx="7.0736523"
           ry="7.0736523"
           y="683.01215"
           x="206.43909"
           height="84.600571"
           width="21.554968"
           id="rect19857"
           style="fill:#ae4502;fill-opacity:1;fill-rule:evenodd;stroke:none;stroke-width:0.5;stroke-linecap:butt;stroke-miterlimit:4;stroke-dasharray:none;stroke-dashoffset:0;stroke-opacity:1" />
        <rect
           transform="matrix(0,1,-1,0,0,0)"
           rx="7.0736523"
           ry="7.0736523"
           y="-303.61151"
           x="695.34039"
           height="59.134159"
           width="21.554897"
           id="rect19859"
           style="fill:#c24d02;fill-opacity:1;fill-rule:evenodd;stroke:none;stroke-width:0.5;stroke-linecap:butt;stroke-miterlimit:4;stroke-dasharray:none;stroke-dashoffset:0;stroke-opacity:1" />
        <rect
           style="fill:#c24d01;fill-opacity:1;fill-rule:evenodd;stroke:none;stroke-width:0.5;stroke-linecap:butt;stroke-miterlimit:4;stroke-dasharray:none;stroke-dashoffset:0;stroke-opacity:1"
           id="rect19861"
           width="21.554897"
           height="59.134159"
           x="746.0578"
           y="-303.61151"
           ry="7.0736523"
           rx="7.0736523"
           transform="matrix(0,1,-1,0,0,0)" />
        <rect
           transform="matrix(0,1,-1,0,0,0)"
           rx="7.0736523"
           ry="7.0736523"
           y="-329.89328"
           x="720.6991"
           height="59.134159"
           width="21.554897"
           id="rect19863"
           style="fill:#d65502;fill-opacity:1;fill-rule:evenodd;stroke:none;stroke-width:0.5;stroke-linecap:butt;stroke-miterlimit:4;stroke-dasharray:none;stroke-dashoffset:0;stroke-opacity:1" />
        <rect
           rx="7.0736523"
           ry="7.0736523"
           y="670.17767"
           x="347.91284"
           height="97.434998"
           width="22.062147"
           id="rect19865"
           style="fill:#e85d03;fill-opacity:1;fill-rule:evenodd;stroke:none;stroke-width:0.5;stroke-linecap:butt;stroke-miterlimit:4;stroke-dasharray:none;stroke-dashoffset:0;stroke-opacity:1" />
        <rect
           rx="7.0736523"
           ry="7.0736527"
           y="670.35419"
           x="181.08029"
           height="32"
           width="21.554989"
           id="rect19867"
           style="fill:#9a3d00;fill-opacity:1;fill-rule:evenodd;stroke:none;stroke-width:0.5;stroke-linecap:butt;stroke-miterlimit:4;stroke-dasharray:none;stroke-dashoffset:0;stroke-opacity:1" />
      </g>
    </g>
  </g>
</svg>
