<?xml version="1.0" encoding="UTF-8" standalone="no"?>
<svg
   xmlns:dc="http://purl.org/dc/elements/1.1/"
   xmlns:cc="http://creativecommons.org/ns#"
   xmlns:rdf="http://www.w3.org/1999/02/22-rdf-syntax-ns#"
   xmlns:svg="http://www.w3.org/2000/svg"
   xmlns="http://www.w3.org/2000/svg"
   xmlns:sodipodi="http://sodipodi.sourceforge.net/DTD/sodipodi-0.dtd"
   xmlns:inkscape="http://www.inkscape.org/namespaces/inkscape"
   width="4.57127in"
   height="0.997109in"
   viewBox="0 0 1600 349"
   id="svg3004"
   version="1.1"
   inkscape:version="0.48.4 r9939"
   sodipodi:docname="pdasite.svg">
  <metadata
     id="metadata3011">
    <rdf:RDF>
      <cc:Work
         rdf:about="">
        <dc:format>image/svg+xml</dc:format>
        <dc:type
           rdf:resource="http://purl.org/dc/dcmitype/StillImage" />
      </cc:Work>
    </rdf:RDF>
  </metadata>
  <defs
     id="defs3009">
    <filter
       inkscape:collect="always"
       id="filter3847"
       x="-0.019929412"
       width="1.0398588"
       y="-0.18592683"
       height="1.3718537">
      <feGaussianBlur
         inkscape:collect="always"
         stdDeviation="12.705"
         id="feGaussianBlur3849" />
    </filter>
  </defs>
  <sodipodi:namedview
     pagecolor="#ffffff"
     bordercolor="#666666"
     borderopacity="1"
     objecttolerance="10"
     gridtolerance="10"
     guidetolerance="10"
     inkscape:pageopacity="0"
     inkscape:pageshadow="2"
     inkscape:window-width="1919"
     inkscape:window-height="1147"
     id="namedview3007"
     showgrid="false"
     inkscape:zoom="2.5148725"
     inkscape:cx="242.31137"
     inkscape:cy="53.212794"
     inkscape:window-x="-8"
     inkscape:window-y="-8"
     inkscape:window-maximized="1"
     inkscape:current-layer="svg3004" />
  <rect
     style="fill:#0d4b88;stroke:none;fill-opacity:1"
     id="rect3787"
     width="1598.3553"
     height="347.68417"
     x="0"
     y="1.3159444" />
  <path
     id="PDAsite.pl"
     d="m 89,156 0,13 13,0 0,-13 z m 0,16 0,13 13,0 0,-13 z m -16,-32 0,13 13,0 0,-13 z m 0,48 0,13 13,0 0,-13 z m -16,-48 0,13 13,0 0,-13 z m 0,48 0,13 13,0 0,-13 z m -16,-48 0,13 13,0 0,-13 z m 0,48 0,13 13,0 0,-13 z m -17,-48 0,13 13,0 0,-13 z m 0,16 0,13 13,0 0,-13 z m 0,16 0,13 13,0 0,-13 z m 0,16 0,13 13,0 0,-13 z m 0,16 0,13 13,0 0,-13 z m 0,16 0,13 13,0 0,-13 z m 0,16 0,13 13,0 0,-13 z m 160,-64 0,13 13,0 0,-13 z m 0,16 0,13 13,0 0,-13 z m 0,16 0,13 13,0 0,-13 z m -16,-48 0,13 13,0 0,-13 z m 0,64 0,13 13,0 0,-13 z m -16,-80 0,13 13,0 0,-13 z m 0,96 0,13 13,0 0,-13 z m -16,-96 0,13 13,0 0,-13 z m 0,96 0,13 13,0 0,-13 z m -17,-96 0,13 13,0 0,-13 z m 0,16 0,13 13,0 0,-13 z m 0,16 0,13 13,0 0,-13 z m 0,16 0,13 13,0 0,-13 z m 0,16 0,13 13,0 0,-13 z m 0,16 0,13 13,0 0,-13 z m 0,16 0,13 13,0 0,-13 z m 160,-80 0,13 13,0 0,-13 z m 0,16 0,13 13,0 0,-13 z m 0,16 0,13 13,0 0,-13 z m 0,16 0,13 13,0 0,-13 z m 0,16 0,13 13,0 0,-13 z m 0,16 0,13 13,0 0,-13 z m -16,-96 0,13 13,0 0,-13 z m 0,64 0,13 13,0 0,-13 z m -16,-64 0,13 13,0 0,-13 z m 0,64 0,13 13,0 0,-13 z m -16,-64 0,13 13,0 0,-13 z m 0,64 0,13 13,0 0,-13 z m -17,-48 0,13 13,0 0,-13 z m 0,16 0,13 13,0 0,-13 z m 0,16 0,13 13,0 0,-13 z m 0,16 0,13 13,0 0,-13 z m 0,16 0,13 13,0 0,-13 z m 0,16 0,13 13,0 0,-13 z m 160,-16 0,13 13,0 0,-13 z m -16,-48 0,13 13,0 0,-13 z m 0,32 0,13 13,0 0,-13 z m 0,32 0,13 13,0 0,-13 z m -16,-64 0,13 13,0 0,-13 z m 0,32 0,13 13,0 0,-13 z m 0,32 0,13 13,0 0,-13 z m -16,-64 0,13 13,0 0,-13 z m 0,32 0,13 13,0 0,-13 z m 0,32 0,13 13,0 0,-13 z m -17,-48 0,13 13,0 0,-13 z m 0,48 0,13 13,0 0,-13 z m 127,0 0,13 13,0 0,-13 z m -16,-96 0,13 13,0 0,-13 z m 0,32 0,13 13.17,0 0,-13 z m 0,16 0,13 13.17,0 0,-13 z m 0,16 0,13 13.17,0 0,-13 z m 0,16 0,13 13.17,0 0,-13 z m 0,16 0,13 13,0 0,-13 z m -16,-64 0,13 13,0 0,-13 z m 0,64 0,13 13,0 0,-13 z m 127,-16 0,13 13,0 0,-13 z m -16,-48 0,13 13,0 0,-13 z m 0,64 0,13 13,0 0,-13 z m -16,-64 0,13 13,0 0,-13 z m 0,64 0,13 13,0 0,-13 z m -16,-96 0,13 13,0 0,-13 z m 0,16 0,13 13,0 0,-13 z m 0,16 0,13 13,0 0,-13 z m 0,16 0,13 13,0 0,-13 z m 0,16 0,13 13,0 0,-13 z m 0,16 0,13 13,0 0,-13 z m -17,-48 0,13 13,0 0,-13 z m 160,16 0,13 13,0 0,-13 z m 0,16 0,13 13,0 0,-13 z m -16,-32 0,13 13,0 0,-13 z m 0,32 0,13 13,0 0,-13 z m 0,32 0,13 13,0 0,-13 z m -16,-64 0,13 13,0 0,-13 z m 0,32 0,13 13,0 0,-13 z m 0,32 0,13 13,0 0,-13 z m -16,-64 0,13 13,0 0,-13 z m 0,32 0,13 13,0 0,-13 z m 0,32 0,13 13,0 0,-13 z m -17,-48 0,13 13,0 0,-13 z m 0,16 0,13 13,0 0,-13 z m 0,16 0,13 13,0 0,-13 z m 111,0 0,13 13,0 0,-13 z m 0,16 0,13 13,0 0,-13 z m -16,-16 0,13 13,0 0,-13 z m 0,16 0,13 13,0 0,-13 z m 111,-48 0,13 13,0 0,-13 z m 0,16 0,13 13,0 0,-13 z m 0,16 0,13 13,0 0,-13 z m -16,-48 0,13 13,0 0,-13 z m 0,64 0,13 13,0 0,-13 z m -16,-64 0,13 13,0 0,-13 z m 0,64 0,13 13,0 0,-13 z m -16,-64 0,13 13,0 0,-13 z m 0,64 0,13 13,0 0,-13 z m -17,16 0,13 13,0 0,-13 z m 0,16 0,13 13,0 0,-13 z m 0,-96 0,13 13,0 0,-13 z m 0,16 0,13 13,0 0,-13 z m 0,16 0,13 13,0 0,-13 z m 0,16 0,13 13,0 0,-13 z m 0,16 0,13 13,0 0,-13 z m 160,0 0,13 13,0 0,-13 z m -16,0 0,13 13,0 0,-13 z m -16,-96 0,13 13,0 0,-13 z m 0,16 0,13 13,0 0,-13 z m 0,16 0,13 13,0 0,-13 z m 0,16 0,13 13,0 0,-13 z m 0,16 0,13 13,0 0,-13 z m 0,16 0,13 13,0 0,-13 z m 0,16 0,13 13,0 0,-13 z m -16,-96 0,13 13,0 0,-13 z m 0,96 0,13 13,0 0,-13 z m -17,-96 0,13 13,0 0,-13 z m 0,96 0,13 13,0 0,-13 z m -558,55 0,13 13,0 0,-13 z m -16,0 0,13 13,0 0,-13 z m -16,0 0,13 13,0 0,-13 z m 94,0 0,13 13,0 0,-13 z m -16,0 0,13 13,0 0,-13 z m -16,0 0,13 13,0 0,-13 z m 94,0 0,13 13,0 0,-13 z m -16,0 0,13 13,0 0,-13 z m -16,0 0,13 13,0 0,-13 z m 94,0 0,13 13,0 0,-13 z m -16,0 0,13 13,0 0,-13 z m -16,0 0,13 13,0 0,-13 z m 94,0 0,13 13,0 0,-13 z m -16,0 0,13 13,0 0,-13 z m -16,0 0,13 13,0 0,-13 z m 94,0 0,13 13,0 0,-13 z m -16,0 0,13 13,0 0,-13 z m -16,0 0,13 13,0 0,-13 z m 94,0 0,13 13,0 0,-13 z m -16,0 0,13 13,0 0,-13 z m -16,0 0,13 13,0 0,-13 z m 94,0 0,13 13,0 0,-13 z m -16,0 0,13 13,0 0,-13 z m -16,0 0,13 13,0 0,-13 z m 94,0 0,13 13,0 0,-13 z m -16,0 0,13 13,0 0,-13 z m -16,0 0,13 13,0 0,-13 z m 94,0 0,13 13,0 0,-13 z m -16,0 0,13 13,0 0,-13 z m -16,0 0,13 13,0 0,-13 z m 94,0 0,13 13,0 0,-13 z m -16,0 0,13 13,0 0,-13 z m -16,0 0,13 13,0 0,-13 z m 94,0 0,13 13,0 0,-13 z m -16,0 0,13 13,0 0,-13 z m -16,0 0,13 13,0 0,-13 z m 94,0 0,13 13,0 0,-13 z m -16,0 0,13 13,0 0,-13 z m -16,0 0,13 13,0 0,-13 z m 94,0 0,13 13,0 0,-13 z m -16,0 0,13 13,0 0,-13 z m -16,0 0,13 13,0 0,-13 z m 94,0 0,13 13,0 0,-13 z m -16,0 0,13 13,0 0,-13 z m -16,0 0,13 13,0 0,-13 z m 94,0 0,13 13,0 0,-13 z m -16,0 0,13 13,0 0,-13 z m -16,0 0,13 13,0 0,-13 z m 94,0 0,13 13,0 0,-13 z m -16,0 0,13 13,0 0,-13 z m -16,0 0,13 13,0 0,-13 z m 94,0 0,13 13,0 0,-13 z m -16,0 0,13 13,0 0,-13 z m -16,0 0,13 13,0 0,-13 z m 94,0 0,13 13,0 0,-13 z m -16,0 0,13 13,0 0,-13 z m -16,0 0,13 13,0 0,-13 z m 94,0 0,13 13,0 0,-13 z m -16,0 0,13 13,0 0,-13 z m -16,0 0,13 13,0 0,-13 z m 94,0 0,13 13,0 0,-13 z m -16,0 0,13 13,0 0,-13 z m -16,0 0,13 13,0 0,-13 z m 94,0 0,13 13,0 0,-13 z m -16,0 0,13 13,0 0,-13 z m -16,0 0,13 13,0 0,-13 z"
     style="fill:#000000;fill-opacity:1;fill-rule:evenodd;stroke:none;filter:url(#filter3847)"
     inkscape:connector-curvature="0"
     sodipodi:nodetypes="ccccccccccccccccccccccccccccccccccccccccccccccccccccccccccccccccccccccccccccccccccccccccccccccccccccccccccccccccccccccccccccccccccccccccccccccccccccccccccccccccccccccccccccccccccccccccccccccccccccccccccccccccccccccccccccccccccccccccccccccccccccccccccccccccccccccccccccccccccccccccccccccccccccccccccccccccccccccccccccccccccccccccccccccccccccccccccccccccccccccccccccccccccccccccccccccccccccccccccccccccccccccccccccccccccccccccccccccccccccccccccccccccccccccccccccccccccccccccccccccccccccccccccccccccccccccccccccccccccccccccccccccccccccccccccccccccccccccccccccccccccccccccccccccccccccccccccccccccccccccccccccccccccccccccccccccccccccccccccccccccccccccccccccccccccccccccccccccccccccccccccccccccccccccccccccccccccccccccccccccccccccccccccccccccccccccccccccccccccccccccccccccccccccccccccccccccccccccccccccccccccccccccccccccccccccccccccccccccccccccccccccccccccccccccccccccccccccccccccccccccccccccccccccccccccccccccccccccccccccccccccccccccccccccccccccccccccccccccccccccccccccccccccccccc" />
  <path
     inkscape:connector-curvature="0"
     id="PDAsite.pl-7"
     d="m 85.469863,151.85217 c 0,0 0,13 0,13 0,0 13,0 13,0 0,0 0,-13 0,-13 0,0 -13,0 -13,0 z m 0,16 c 0,0 0,13 0,13 0,0 13,0 13,0 0,0 0,-13 0,-13 0,0 -13,0 -13,0 z m -16,-32 c 0,0 0,13 0,13 0,0 13,0 13,0 0,0 0,-13 0,-13 0,0 -13,0 -13,0 z m 0,48 c 0,0 0,13 0,13 0,0 13,0 13,0 0,0 0,-13 0,-13 0,0 -13,0 -13,0 z m -16,-48 c 0,0 0,13 0,13 0,0 13,0 13,0 0,0 0,-13 0,-13 0,0 -13,0 -13,0 z m 0,48 c 0,0 0,13 0,13 0,0 13,0 13,0 0,0 0,-13 0,-13 0,0 -13,0 -13,0 z m -16,-48 c 0,0 0,13 0,13 0,0 13,0 13,0 0,0 0,-13 0,-13 0,0 -13,0 -13,0 z m 0,48 c 0,0 0,13 0,13 0,0 13,0 13,0 0,0 0,-13 0,-13 0,0 -13,0 -13,0 z m -17,-48 c 0,0 0,13 0,13 0,0 13,0 13,0 0,0 0,-13 0,-13 0,0 -13,0 -13,0 z m 0,16 c 0,0 0,13 0,13 0,0 13,0 13,0 0,0 0,-13 0,-13 0,0 -13,0 -13,0 z m 0,16 c 0,0 0,13 0,13 0,0 13,0 13,0 0,0 0,-13 0,-13 0,0 -13,0 -13,0 z m 0,16 c 0,0 0,13 0,13 0,0 13,0 13,0 0,0 0,-13 0,-13 0,0 -13,0 -13,0 z m 0,16 c 0,0 0,13 0,13 0,0 13,0 13,0 0,0 0,-13 0,-13 0,0 -13,0 -13,0 z m 0,16 c 0,0 0,13 0,13 0,0 13,0 13,0 0,0 0,-13 0,-13 0,0 -13,0 -13,0 z m 0,16 c 0,0 0,13 0,13 0,0 13,0 13,0 0,0 0,-13 0,-13 0,0 -13,0 -13,0 z m 159.999997,-64 c 0,0 0,13 0,13 0,0 13,0 13,0 0,0 0,-13 0,-13 0,0 -13,0 -13,0 z m 0,16 c 0,0 0,13 0,13 0,0 13,0 13,0 0,0 0,-13 0,-13 0,0 -13,0 -13,0 z m 0,16 c 0,0 0,13 0,13 0,0 13,0 13,0 0,0 0,-13 0,-13 0,0 -13,0 -13,0 z m -16,-48 c 0,0 0,13 0,13 0,0 13,0 13,0 0,0 0,-13 0,-13 0,0 -13,0 -13,0 z m 0,64 c 0,0 0,13 0,13 0,0 13,0 13,0 0,0 0,-13 0,-13 0,0 -13,0 -13,0 z m -16,-80 c 0,0 0,13 0,13 0,0 13,0 13,0 0,0 0,-13 0,-13 0,0 -13,0 -13,0 z m 0,96 c 0,0 0,13 0,13 0,0 13,0 13,0 0,0 0,-13 0,-13 0,0 -13,0 -13,0 z m -16,-96 c 0,0 0,13 0,13 0,0 13,0 13,0 0,0 0,-13 0,-13 0,0 -13,0 -13,0 z m 0,96 c 0,0 0,13 0,13 0,0 13,0 13,0 0,0 0,-13 0,-13 0,0 -13,0 -13,0 z m -17,-96 c 0,0 0,13 0,13 0,0 13,0 13,0 0,0 0,-13 0,-13 0,0 -13,0 -13,0 z m 0,16 c 0,0 0,13 0,13 0,0 13,0 13,0 0,0 0,-13 0,-13 0,0 -13,0 -13,0 z m 0,16 c 0,0 0,13 0,13 0,0 13,0 13,0 0,0 0,-13 0,-13 0,0 -13,0 -13,0 z m 0,16 c 0,0 0,13 0,13 0,0 13,0 13,0 0,0 0,-13 0,-13 0,0 -13,0 -13,0 z m 0,16 c 0,0 0,13 0,13 0,0 13,0 13,0 0,0 0,-13 0,-13 0,0 -13,0 -13,0 z m 0,16 c 0,0 0,13 0,13 0,0 13,0 13,0 0,0 0,-13 0,-13 0,0 -13,0 -13,0 z m 0,16 c 0,0 0,13 0,13 0,0 13,0 13,0 0,0 0,-13 0,-13 0,0 -13,0 -13,0 z m 160.00001,-80 c 0,0 0,13 0,13 0,0 13,0 13,0 0,0 0,-13 0,-13 0,0 -13,0 -13,0 z m 0,16 c 0,0 0,13 0,13 0,0 13,0 13,0 0,0 0,-13 0,-13 0,0 -13,0 -13,0 z m 0,16 c 0,0 0,13 0,13 0,0 13,0 13,0 0,0 0,-13 0,-13 0,0 -13,0 -13,0 z m 0,16 c 0,0 0,13 0,13 0,0 13,0 13,0 0,0 0,-13 0,-13 0,0 -13,0 -13,0 z m 0,16 c 0,0 0,13 0,13 0,0 13,0 13,0 0,0 0,-13 0,-13 0,0 -13,0 -13,0 z m 0,16 c 0,0 0,13 0,13 0,0 13,0 13,0 0,0 0,-13 0,-13 0,0 -13,0 -13,0 z m -16.00001,-96 c 0,0 0,13 0,13 0,0 13.00001,0 13.00001,0 0,0 0,-13 0,-13 0,0 -13.00001,0 -13.00001,0 z m 0,64 c 0,0 0,13 0,13 0,0 13.00001,0 13.00001,0 0,0 0,-13 0,-13 0,0 -13.00001,0 -13.00001,0 z m -16,-64 c 0,0 0,13 0,13 0,0 13,0 13,0 0,0 0,-13 0,-13 0,0 -13,0 -13,0 z m 0,64 c 0,0 0,13 0,13 0,0 13,0 13,0 0,0 0,-13 0,-13 0,0 -13,0 -13,0 z m -16,-64 c 0,0 0,13 0,13 0,0 13,0 13,0 0,0 0,-13 0,-13 0,0 -13,0 -13,0 z m 0,64 c 0,0 0,13 0,13 0,0 13,0 13,0 0,0 0,-13 0,-13 0,0 -13,0 -13,0 z m -17,-48 c 0,0 0,13 0,13 0,0 13,0 13,0 0,0 0,-13 0,-13 0,0 -13,0 -13,0 z m 0,16 c 0,0 0,13 0,13 0,0 13,0 13,0 0,0 0,-13 0,-13 0,0 -13,0 -13,0 z m 0,16 c 0,0 0,13 0,13 0,0 13,0 13,0 0,0 0,-13 0,-13 0,0 -13,0 -13,0 z m 0,16 c 0,0 0,13 0,13 0,0 13,0 13,0 0,0 0,-13 0,-13 0,0 -13,0 -13,0 z m 0,16 c 0,0 0,13 0,13 0,0 13,0 13,0 0,0 0,-13 0,-13 0,0 -13,0 -13,0 z m 0,16 c 0,0 0,13 0,13 0,0 13,0 13,0 0,0 0,-13 0,-13 0,0 -13,0 -13,0 z m 160.00001,-16 c 0,0 0,13 0,13 0,0 13,0 13,0 0,0 0,-13 0,-13 0,0 -13,0 -13,0 z m -16,-48 c 0,0 0,13 0,13 0,0 13,0 13,0 0,0 0,-13 0,-13 0,0 -13,0 -13,0 z m 0,32 c 0,0 0,13 0,13 0,0 13,0 13,0 0,0 0,-13 0,-13 0,0 -13,0 -13,0 z m 0,32 c 0,0 0,13 0,13 0,0 13,0 13,0 0,0 0,-13 0,-13 0,0 -13,0 -13,0 z m -16,-64 c 0,0 0,13 0,13 0,0 13,0 13,0 0,0 0,-13 0,-13 0,0 -13,0 -13,0 z m 0,32 c 0,0 0,13 0,13 0,0 13,0 13,0 0,0 0,-13 0,-13 0,0 -13,0 -13,0 z m 0,32 c 0,0 0,13 0,13 0,0 13,0 13,0 0,0 0,-13 0,-13 0,0 -13,0 -13,0 z m -16,-64 c 0,0 0,13 0,13 0,0 13,0 13,0 0,0 0,-13 0,-13 0,0 -13,0 -13,0 z m 0,32 c 0,0 0,13 0,13 0,0 13,0 13,0 0,0 0,-13 0,-13 0,0 -13,0 -13,0 z m 0,32 c 0,0 0,13 0,13 0,0 13,0 13,0 0,0 0,-13 0,-13 0,0 -13,0 -13,0 z m -17,-48 c 0,0 0,13 0,13 0,0 13,0 13,0 0,0 0,-13 0,-13 0,0 -13,0 -13,0 z m 0,48 c 0,0 0,13 0,13 0,0 13,0 13,0 0,0 0,-13 0,-13 0,0 -13,0 -13,0 z m 126.99998,0 c 0,0 0,13 0,13 0,0 13,0 13,0 0,0 0,-13 0,-13 0,0 -13,0 -13,0 z m -15.99998,-96 c 0,0 0,13 0,13 0,0 12.99999,0 12.99999,0 0,0 0,-13 0,-13 0,0 -12.99999,0 -12.99999,0 z m 0,32 c 0,0 0,13 0,13 0,0 13.16998,0 13.16998,0 0,0 0,-13 0,-13 0,0 -13.16998,0 -13.16998,0 z m 0,16 c 0,0 0,13 0,13 0,0 13.16998,0 13.16998,0 0,0 0,-13 0,-13 0,0 -13.16998,0 -13.16998,0 z m 0,16 c 0,0 0,13 0,13 0,0 13.16998,0 13.16998,0 0,0 0,-13 0,-13 0,0 -13.16998,0 -13.16998,0 z m 0,16 c 0,0 0,13 0,13 0,0 13.16998,0 13.16998,0 0,0 0,-13 0,-13 0,0 -13.16998,0 -13.16998,0 z m 0,16 c 0,0 0,13 0,13 0,0 12.99999,0 12.99999,0 0,0 0,-13 0,-13 0,0 -12.99999,0 -12.99999,0 z m -16,-64 c 0,0 0,13 0,13 0,0 13,0 13,0 0,0 0,-13 0,-13 0,0 -13,0 -13,0 z m 0,64 c 0,0 0,13 0,13 0,0 13,0 13,0 0,0 0,-13 0,-13 0,0 -13,0 -13,0 z m 127,-16 c 0,0 0,13 0,13 0,0 12.99999,0 12.99999,0 0,0 0,-13 0,-13 0,0 -12.99999,0 -12.99999,0 z m -16.00003,-48 c 0,0 0,13 0,13 0,0 13.00003,0 13.00003,0 0,0 0,-13 0,-13 0,0 -13.00003,0 -13.00003,0 z m 0,64 c 0,0 0,13 0,13 0,0 13.00003,0 13.00003,0 0,0 0,-13 0,-13 0,0 -13.00003,0 -13.00003,0 z m -15.99999,-64 c 0,0 0,13 0,13 0,0 13,0 13,0 0,0 0,-13 0,-13 0,0 -13,0 -13,0 z m 0,64 c 0,0 0,13 0,13 0,0 13,0 13,0 0,0 0,-13 0,-13 0,0 -13,0 -13,0 z m -15.99999,-96 c 0,0 0,13 0,13 0,0 13,0 13,0 0,0 0,-13 0,-13 0,0 -13,0 -13,0 z m 0,16 c 0,0 0,13 0,13 0,0 13,0 13,0 0,0 0,-13 0,-13 0,0 -13,0 -13,0 z m 0,16 c 0,0 0,13 0,13 0,0 13,0 13,0 0,0 0,-13 0,-13 0,0 -13,0 -13,0 z m 0,16 c 0,0 0,13 0,13 0,0 13,0 13,0 0,0 0,-13 0,-13 0,0 -13,0 -13,0 z m 0,16 c 0,0 0,13 0,13 0,0 13,0 13,0 0,0 0,-13 0,-13 0,0 -13,0 -13,0 z m 0,16 c 0,0 0,13 0,13 0,0 13,0 13,0 0,0 0,-13 0,-13 0,0 -13,0 -13,0 z m -17,-48 c 0,0 0,13 0,13 0,0 12.99999,0 12.99999,0 0,0 0,-13 0,-13 0,0 -12.99999,0 -12.99999,0 z m 159.99999,16 c 0,0 0,13 0,13 0,0 12.99999,0 12.99999,0 0,0 0,-13 0,-13 0,0 -12.99999,0 -12.99999,0 z m 0,16 c 0,0 0,13 0,13 0,0 12.99999,0 12.99999,0 0,0 0,-13 0,-13 0,0 -12.99999,0 -12.99999,0 z m -15.99999,-32 c 0,0 0,13 0,13 0,0 13,0 13,0 0,0 0,-13 0,-13 0,0 -13,0 -13,0 z m 0,32 c 0,0 0,13 0,13 0,0 13,0 13,0 0,0 0,-13 0,-13 0,0 -13,0 -13,0 z m 0,32 c 0,0 0,13 0,13 0,0 13,0 13,0 0,0 0,-13 0,-13 0,0 -13,0 -13,0 z m -15.99999,-64 c 0,0 0,13 0,13 0,0 13,0 13,0 0,0 0,-13 0,-13 0,0 -13,0 -13,0 z m 0,32 c 0,0 0,13 0,13 0,0 13,0 13,0 0,0 0,-13 0,-13 0,0 -13,0 -13,0 z m 0,32 c 0,0 0,13 0,13 0,0 13,0 13,0 0,0 0,-13 0,-13 0,0 -13,0 -13,0 z m -16.00002,-64 c 0,0 0,13 0,13 0,0 12.99999,0 12.99999,0 0,0 0,-13 0,-13 0,0 -12.99999,0 -12.99999,0 z m 0,32 c 0,0 0,13 0,13 0,0 12.99999,0 12.99999,0 0,0 0,-13 0,-13 0,0 -12.99999,0 -12.99999,0 z m 0,32 c 0,0 0,13 0,13 0,0 12.99999,0 12.99999,0 0,0 0,-13 0,-13 0,0 -12.99999,0 -12.99999,0 z m -16.99998,-48 c 0,0 0,13 0,13 0,0 13,0 13,0 0,0 0,-13 0,-13 0,0 -13,0 -13,0 z m 0,16 c 0,0 0,13 0,13 0,0 13,0 13,0 0,0 0,-13 0,-13 0,0 -13,0 -13,0 z m 0,16 c 0,0 0,13 0,13 0,0 13,0 13,0 0,0 0,-13 0,-13 0,0 -13,0 -13,0 z m 110.99997,0 c 0,0 0,13 0,13 0,0 13,0 13,0 0,0 0,-13 0,-13 0,0 -13,0 -13,0 z m 0,16 c 0,0 0,13 0,13 0,0 13,0 13,0 0,0 0,-13 0,-13 0,0 -13,0 -13,0 z m -15.99998,-16 c 0,0 0,13 0,13 0,0 12.99999,0 12.99999,0 0,0 0,-13 0,-13 0,0 -12.99999,0 -12.99999,0 z m 0,16 c 0,0 0,13 0,13 0,0 12.99999,0 12.99999,0 0,0 0,-13 0,-13 0,0 -12.99999,0 -12.99999,0 z m 111.00001,-48 c 0,0 0,13 0,13 0,0 12.99999,0 12.99999,0 0,0 0,-13 0,-13 0,0 -12.99999,0 -12.99999,0 z m 0,16 c 0,0 0,13 0,13 0,0 12.99999,0 12.99999,0 0,0 0,-13 0,-13 0,0 -12.99999,0 -12.99999,0 z m 0,16 c 0,0 0,13 0,13 0,0 12.99999,0 12.99999,0 0,0 0,-13 0,-13 0,0 -12.99999,0 -12.99999,0 z m -16.00003,-48 c 0,0 0,13 0,13 0,0 13.00003,0 13.00003,0 0,0 0,-13 0,-13 0,0 -13.00003,0 -13.00003,0 z m 0,64 c 0,0 0,13 0,13 0,0 13.00003,0 13.00003,0 0,0 0,-13 0,-13 0,0 -13.00003,0 -13.00003,0 z m -15.99999,-64 c 0,0 0,13 0,13 0,0 13,0 13,0 0,0 0,-13 0,-13 0,0 -13,0 -13,0 z m 0,64 c 0,0 0,13 0,13 0,0 13,0 13,0 0,0 0,-13 0,-13 0,0 -13,0 -13,0 z m -15.99999,-64 c 0,0 0,13 0,13 0,0 13,0 13,0 0,0 0,-13 0,-13 0,0 -13,0 -13,0 z m 0,64 c 0,0 0,13 0,13 0,0 13,0 13,0 0,0 0,-13 0,-13 0,0 -13,0 -13,0 z m -17.00001,16 c 0,0 0,12.99999 0,12.99999 0,0 13,0 13,0 0,0 0,-12.99999 0,-12.99999 0,0 -13,0 -13,0 z m 0,16 c 0,0 0,12.99999 0,12.99999 0,0 13,0 13,0 0,0 0,-12.99999 0,-12.99999 0,0 -13,0 -13,0 z m 0,-96 c 0,0 0,13 0,13 0,0 13,0 13,0 0,0 0,-13 0,-13 0,0 -13,0 -13,0 z m 0,16 c 0,0 0,13 0,13 0,0 13,0 13,0 0,0 0,-13 0,-13 0,0 -13,0 -13,0 z m 0,16 c 0,0 0,13 0,13 0,0 13,0 13,0 0,0 0,-13 0,-13 0,0 -13,0 -13,0 z m 0,16 c 0,0 0,13 0,13 0,0 13,0 13,0 0,0 0,-13 0,-13 0,0 -13,0 -13,0 z m 0,16 c 0,0 0,13 0,13 0,0 13,0 13,0 0,0 0,-13 0,-13 0,0 -13,0 -13,0 z m 160,0 c 0,0 0,13 0,13 0,0 12.99999,0 12.99999,0 0,0 0,-13 0,-13 0,0 -12.99999,0 -12.99999,0 z m -15.99999,0 c 0,0 0,13 0,13 0,0 13,0 13,0 0,0 0,-13 0,-13 0,0 -13,0 -13,0 z m -15.99999,-96 c 0,0 0,13 0,13 0,0 13,0 13,0 0,0 0,-13 0,-13 0,0 -13,0 -13,0 z m 0,16 c 0,0 0,13 0,13 0,0 13,0 13,0 0,0 0,-13 0,-13 0,0 -13,0 -13,0 z m 0,16 c 0,0 0,13 0,13 0,0 13,0 13,0 0,0 0,-13 0,-13 0,0 -13,0 -13,0 z m 0,16 c 0,0 0,13 0,13 0,0 13,0 13,0 0,0 0,-13 0,-13 0,0 -13,0 -13,0 z m 0,16 c 0,0 0,13 0,13 0,0 13,0 13,0 0,0 0,-13 0,-13 0,0 -13,0 -13,0 z m 0,16 c 0,0 0,13 0,13 0,0 13,0 13,0 0,0 0,-13 0,-13 0,0 -13,0 -13,0 z m 0,16 c 0,0 0,13 0,13 0,0 13,0 13,0 0,0 0,-13 0,-13 0,0 -13,0 -13,0 z m -16.00003,-96 c 0,0 0,13 0,13 0,0 13,0 13,0 0,0 0,-13 0,-13 0,0 -13,0 -13,0 z m 0,96 c 0,0 0,13 0,13 0,0 13,0 13,0 0,0 0,-13 0,-13 0,0 -13,0 -13,0 z m -16.99997,-96 c 0,0 0,13 0,13 0,0 13,0 13,0 0,0 0,-13 0,-13 0,0 -13,0 -13,0 z m 0,96 c 0,0 0,13 0,13 0,0 13,0 13,0 0,0 0,-13 0,-13 0,0 -13,0 -13,0 z m -558.00001,54.99999 c 0,0 0,13.00001 0,13.00001 0,0 13,0 13,0 0,0 0,-13.00001 0,-13.00001 0,0 -13,0 -13,0 z m -16,0 c 0,0 0,13.00001 0,13.00001 0,0 13,0 13,0 0,0 0,-13.00001 0,-13.00001 0,0 -13,0 -13,0 z m -16,0 c 0,0 0,13.00001 0,13.00001 0,0 13,0 13,0 0,0 0,-13.00001 0,-13.00001 0,0 -13,0 -13,0 z m 94.00001,0 c 0,0 0,13.00001 0,13.00001 0,0 13,0 13,0 0,0 0,-13.00001 0,-13.00001 0,0 -13,0 -13,0 z m -16,0 c 0,0 0,13.00001 0,13.00001 0,0 13,0 13,0 0,0 0,-13.00001 0,-13.00001 0,0 -13,0 -13,0 z m -16,0 c 0,0 0,13.00001 0,13.00001 0,0 13,0 13,0 0,0 0,-13.00001 0,-13.00001 0,0 -13,0 -13,0 z m 94,0 c 0,0 0,13.00001 0,13.00001 0,0 13,0 13,0 0,0 0,-13.00001 0,-13.00001 0,0 -13,0 -13,0 z m -16,0 c 0,0 0,13.00001 0,13.00001 0,0 13,0 13,0 0,0 0,-13.00001 0,-13.00001 0,0 -13,0 -13,0 z m -16,0 c 0,0 0,13.00001 0,13.00001 0,0 13,0 13,0 0,0 0,-13.00001 0,-13.00001 0,0 -13,0 -13,0 z m 94,0 c 0,0 0,13.00001 0,13.00001 0,0 12.99999,0 12.99999,0 0,0 0,-13.00001 0,-13.00001 0,0 -12.99999,0 -12.99999,0 z m -16,0 c 0,0 0,13.00001 0,13.00001 0,0 13,0 13,0 0,0 0,-13.00001 0,-13.00001 0,0 -13,0 -13,0 z m -16,0 c 0,0 0,13.00001 0,13.00001 0,0 13,0 13,0 0,0 0,-13.00001 0,-13.00001 0,0 -13,0 -13,0 z m 93.99997,0 c 0,0 0,13.00001 0,13.00001 0,0 13.00003,0 13.00003,0 0,0 0,-13.00001 0,-13.00001 0,0 -13.00003,0 -13.00003,0 z m -15.99999,0 c 0,0 0,13.00001 0,13.00001 0,0 13,0 13,0 0,0 0,-13.00001 0,-13.00001 0,0 -13,0 -13,0 z m -15.99998,0 c 0,0 0,13.00001 0,13.00001 0,0 12.99999,0 12.99999,0 0,0 0,-13.00001 0,-13.00001 0,0 -12.99999,0 -12.99999,0 z m 93.99999,0 c 0,0 0,13.00001 0,13.00001 0,0 13,0 13,0 0,0 0,-13.00001 0,-13.00001 0,0 -13,0 -13,0 z m -15.99999,0 c 0,0 0,13.00001 0,13.00001 0,0 13,0 13,0 0,0 0,-13.00001 0,-13.00001 0,0 -13,0 -13,0 z m -16.00002,0 c 0,0 0,13.00001 0,13.00001 0,0 12.99999,0 12.99999,0 0,0 0,-13.00001 0,-13.00001 0,0 -12.99999,0 -12.99999,0 z m 94,0 c 0,0 0,13.00001 0,13.00001 0,0 12.99999,0 12.99999,0 0,0 0,-13.00001 0,-13.00001 0,0 -12.99999,0 -12.99999,0 z m -15.99999,0 c 0,0 0,13.00001 0,13.00001 0,0 12.99999,0 12.99999,0 0,0 0,-13.00001 0,-13.00001 0,0 -12.99999,0 -12.99999,0 z m -15.99999,0 c 0,0 0,13.00001 0,13.00001 0,0 12.99999,0 12.99999,0 0,0 0,-13.00001 0,-13.00001 0,0 -12.99999,0 -12.99999,0 z m 94,0 c 0,0 0,13.00001 0,13.00001 0,0 12.99999,0 12.99999,0 0,0 0,-13.00001 0,-13.00001 0,0 -12.99999,0 -12.99999,0 z m -16.00003,0 c 0,0 0,13.00001 0,13.00001 0,0 13.00003,0 13.00003,0 0,0 0,-13.00001 0,-13.00001 0,0 -13.00003,0 -13.00003,0 z m -15.99999,0 c 0,0 0,13.00001 0,13.00001 0,0 13,0 13,0 0,0 0,-13.00001 0,-13.00001 0,0 -13,0 -13,0 z m 94,0 c 0,0 0,13.00001 0,13.00001 0,0 13,0 13,0 0,0 0,-13.00001 0,-13.00001 0,0 -13,0 -13,0 z m -15.99999,0 c 0,0 0,13.00001 0,13.00001 0,0 13,0 13,0 0,0 0,-13.00001 0,-13.00001 0,0 -13,0 -13,0 z m -15.99999,0 c 0,0 0,13.00001 0,13.00001 0,0 13,0 13,0 0,0 0,-13.00001 0,-13.00001 0,0 -13,0 -13,0 z m 94,0 c 0,0 0,13.00001 0,13.00001 0,0 13,0 13,0 0,0 0,-13.00001 0,-13.00001 0,0 -13,0 -13,0 z m -16.00002,0 c 0,0 0,13.00001 0,13.00001 0,0 12.99999,0 12.99999,0 0,0 0,-13.00001 0,-13.00001 0,0 -12.99999,0 -12.99999,0 z m -15.99999,0 c 0,0 0,13.00001 0,13.00001 0,0 12.99999,0 12.99999,0 0,0 0,-13.00001 0,-13.00001 0,0 -12.99999,0 -12.99999,0 z m 94,0 c 0,0 0,13.00001 0,13.00001 0,0 12.99999,0 12.99999,0 0,0 0,-13.00001 0,-13.00001 0,0 -12.99999,0 -12.99999,0 z m -15.99999,0 c 0,0 0,13.00001 0,13.00001 0,0 12.99999,0 12.99999,0 0,0 0,-13.00001 0,-13.00001 0,0 -12.99999,0 -12.99999,0 z m -16.00003,0 c 0,0 0,13.00001 0,13.00001 0,0 13.00003,0 13.00003,0 0,0 0,-13.00001 0,-13.00001 0,0 -13.00003,0 -13.00003,0 z m 94,0 c 0,0 0,13.00001 0,13.00001 0,0 13.00003,0 13.00003,0 0,0 0,-13.00001 0,-13.00001 0,0 -13.00003,0 -13.00003,0 z m -15.99999,0 c 0,0 0,13.00001 0,13.00001 0,0 13,0 13,0 0,0 0,-13.00001 0,-13.00001 0,0 -13,0 -13,0 z m -15.99999,0 c 0,0 0,13.00001 0,13.00001 0,0 13,0 13,0 0,0 0,-13.00001 0,-13.00001 0,0 -13,0 -13,0 z m 94,0 c 0,0 0,13.00001 0,13.00001 0,0 13,0 13,0 0,0 0,-13.00001 0,-13.00001 0,0 -13,0 -13,0 z m -15.99999,0 c 0,0 0,13.00001 0,13.00001 0,0 13,0 13,0 0,0 0,-13.00001 0,-13.00001 0,0 -13,0 -13,0 z m -16.00003,0 c 0,0 0,13.00001 0,13.00001 0,0 13,0 13,0 0,0 0,-13.00001 0,-13.00001 0,0 -13,0 -13,0 z m 94.00006,0 c 0,0 0,13.00001 0,13.00001 0,0 13,0 13,0 0,0 0,-13.00001 0,-13.00001 0,0 -13,0 -13,0 z m -16,0 c 0,0 0,13.00001 0,13.00001 0,0 13,0 13,0 0,0 0,-13.00001 0,-13.00001 0,0 -13,0 -13,0 z m -16,0 c 0,0 0,13.00001 0,13.00001 0,0 13,0 13,0 0,0 0,-13.00001 0,-13.00001 0,0 -13,0 -13,0 z m 94,0 c 0,0 0,13.00001 0,13.00001 0,0 13,0 13,0 0,0 0,-13.00001 0,-13.00001 0,0 -13,0 -13,0 z m -16,0 c 0,0 0,13.00001 0,13.00001 0,0 13,0 13,0 0,0 0,-13.00001 0,-13.00001 0,0 -13,0 -13,0 z m -16,0 c 0,0 0,13.00001 0,13.00001 0,0 13,0 13,0 0,0 0,-13.00001 0,-13.00001 0,0 -13,0 -13,0 z m 94,0 c 0,0 0,13.00001 0,13.00001 0,0 13,0 13,0 0,0 0,-13.00001 0,-13.00001 0,0 -13,0 -13,0 z m -16,0 c 0,0 0,13.00001 0,13.00001 0,0 13,0 13,0 0,0 0,-13.00001 0,-13.00001 0,0 -13,0 -13,0 z m -16,0 c 0,0 0,13.00001 0,13.00001 0,0 13,0 13,0 0,0 0,-13.00001 0,-13.00001 0,0 -13,0 -13,0 z m 94,0 c 0,0 0,13.00001 0,13.00001 0,0 13,0 13,0 0,0 0,-13.00001 0,-13.00001 0,0 -13,0 -13,0 z m -16,0 c 0,0 0,13.00001 0,13.00001 0,0 13,0 13,0 0,0 0,-13.00001 0,-13.00001 0,0 -13,0 -13,0 z m -16,0 c 0,0 0,13.00001 0,13.00001 0,0 13,0 13,0 0,0 0,-13.00001 0,-13.00001 0,0 -13,0 -13,0 z m 94,0 c 0,0 0,13.00001 0,13.00001 0,0 13,0 13,0 0,0 0,-13.00001 0,-13.00001 0,0 -13,0 -13,0 z m -16,0 c 0,0 0,13.00001 0,13.00001 0,0 13,0 13,0 0,0 0,-13.00001 0,-13.00001 0,0 -13,0 -13,0 z m -16,0 c 0,0 0,13.00001 0,13.00001 0,0 13,0 13,0 0,0 0,-13.00001 0,-13.00001 0,0 -13,0 -13,0 z m 94,0 c 0,0 0,13.00001 0,13.00001 0,0 13,0 13,0 0,0 0,-13.00001 0,-13.00001 0,0 -13,0 -13,0 z m -16,0 c 0,0 0,13.00001 0,13.00001 0,0 13,0 13,0 0,0 0,-13.00001 0,-13.00001 0,0 -13,0 -13,0 z m -16,0 c 0,0 0,13.00001 0,13.00001 0,0 13,0 13,0 0,0 0,-13.00001 0,-13.00001 0,0 -13,0 -13,0 z m 94,0 c 0,0 0,13.00001 0,13.00001 0,0 13,0 13,0 0,0 0,-13.00001 0,-13.00001 0,0 -13,0 -13,0 z m -16,0 c 0,0 0,13.00001 0,13.00001 0,0 13,0 13,0 0,0 0,-13.00001 0,-13.00001 0,0 -13,0 -13,0 z m -16,0 c 0,0 0,13.00001 0,13.00001 0,0 13,0 13,0 0,0 0,-13.00001 0,-13.00001 0,0 -13,0 -13,0 z m 94,0 c 0,0 0,13.00001 0,13.00001 0,0 12.9999,0 12.9999,0 0,0 0,-13.00001 0,-13.00001 0,0 -12.9999,0 -12.9999,0 z m -16,0 c 0,0 0,13.00001 0,13.00001 0,0 13,0 13,0 0,0 0,-13.00001 0,-13.00001 0,0 -13,0 -13,0 z m -16,0 c 0,0 0,13.00001 0,13.00001 0,0 13,0 13,0 0,0 0,-13.00001 0,-13.00001 0,0 -13,0 -13,0 z m 93.9999,0 c 0,0 0,13.00001 0,13.00001 0,0 13,0 13,0 0,0 0,-13.00001 0,-13.00001 0,0 -13,0 -13,0 z m -16,0 c 0,0 0,13.00001 0,13.00001 0,0 13,0 13,0 0,0 0,-13.00001 0,-13.00001 0,0 -13,0 -13,0 z m -16,0 c 0,0 0,13.00001 0,13.00001 0,0 13,0 13,0 0,0 0,-13.00001 0,-13.00001 0,0 -13,0 -13,0 z M 1091.5499,67.272167 c -16.27,15.22 -37.95,74.319993 -37.08,93.130003 0,11.53999 11.18,16.62999 22.11,3.63 14.62,-8.00001 28.52,-34.68 39.09,-51.82 15.05,-18.980003 23.05,-16.110012 11.27,9.28 -5.97,11.24 -18.34,27.86 -20.18,31.26999 0,-0.17998 -10.29,13.47001 -8.73,31.82 2.71,26.82001 -16.2,44.91001 -19.11,54.45 -1.36,5.09 -14.54,21.67001 -17.2,22.82001 -0.3099,0.13001 -53.94,0 -55.5,0 -5.37,0 -3.69,-1.81 -2.19,-3.45 15.07,-17.92 20.69,-72.8 23.82,-123.28 1.12,-13.33001 0.99,-18.04001 9.43,-22.21 15.13,-7.25 29.92,-46.170003 31.5,-51.310013 1.82,-4.99999 19.38,-15.90999 60.75,-28.74999 17.13,-5.06 6.69,4.69 5.32,8.25 -2.66,4.08 -15.11,10.27 -25.8,15.7 -5.88,0.44 -13.84,4.4 -17.5,10.47 z m 253.83,67.129993 c 2.64,18.27 -16,25.18001 -24.18,10.18001 -3.28,-12.28 -18.28,-29.91 -22.73,-35.28001 -14.91,-15.179993 -16.64,0.46001 -9.45,16.91 31.54,34.91 26.45,58.09001 24.45,82 -2.91,12.00001 9.45,42.28 22.82,53.64001 3.18,0 52.36,0 56.45,0 3.82,0 3.18,-1.45 2.73,-3.18001 -6.45,-14.46 -11.36,-15.73 -19.36,-129.90999 -0.09,-11 -10.19,6.18 -29.55,-63.910003 -8.64,-7.91 -46.15,-34.37 -51.54,-35.18 -20.74,-8.38 -28.05,-0.32 -5.82,13.82 5.63,3.91 14.82,5.63 25.71,16.68 5.4,2.62 8.83,6.69 10.45,11.87 17.86,32.810003 11.36,38.939993 20.02,62.359993 z m -38.91,30.72001 c 0,1.58 0,2.73 0,2.73 0,5.99999 -3,9 -9,9 0,0 -186,0 -186,0 -2.5,0 -4.48,-0.52001 -5.94,-1.57 -0.81,2.51 -1.44,3.92999 -0.07,10.93 1.77,0.42999 3.77,0.63999 6.01,0.63999 0,0 186,0 186,0 4.62,0 8.39,-0.20001 11.43,-0.75999 0,0 2,-10.07 -2.43,-20.97 z m -22.33,-36.6 c -12.04,-22.92 -0.61,-40.610013 16.33,-26.14 0,-7.460003 0,-22.530003 0,-22.530003 0,-3 0,-3 -3,-3 0,0 -186,0 -186,0 -3,0 -3,0 -3,3 0,0 0,20.810003 0,31.800003 0,0 1.82,-3.07 1.82,-3.07 20.42,-27.550003 36.73,-17.280003 23.27,15.26999 -6.54,12.36001 -25.96,34.38001 -25.09,44.00001 0,2.99999 0,2.99999 3,2.99999 0,0 186,0 186,0 3,0 3,0 3,-2.99999 0,0 0,-9.96 0,-15.53 0,-1.99 -16.33,-23.8 -16.33,-23.8 z m -189.67,-54.030003 c 0,0 0,43.660003 0,59.540003 0,0 7.78,-10.4 8,-12.24001 0,-11.94999 0,-41.939993 0,-41.939993 0,-6 3,-9 9,-9 0,0 186,0 186,0 6,0 9,3 9,9 0,0 0,18.430001 0,27.930003 3.44,2.76 12.18,16.62 14,19.81 0,-14.96001 -0.1599,-50.900003 -0.1599,-50.900003 -2.75,-4.49 -6.2099,-8.76 -10.7699,-12.81 0,0 -0.44,-1.03 -12.0701,-1.03 0,0 -185.9999,0 -185.9999,0 -1.6701,0.0101 -2.86,0 -4.6201,0 -2.82,-0.3 -12.38,9.27 -12.38,11.64 z m 232,67.760003 c 0,4.99 14.38,10.47999 13.33,-6.4 -9.58,-18.62 -5.33,-27.12 -13.21,-45.460003 0,0 -0.1198,51.860003 -0.1198,51.860003 z m -237.84,-59.630003 c -11.25,19.060003 -25.8,53.139993 -27.49,76.900003 -0.2201,2.97 -0.2501,14.35999 11.6,-1.22001 6.86,-3.57 15.73,-16.3 15.73,-16.3 0,0 0.1598,-59.379993 0.1598,-59.379993 z m 32.45,-25.77 c 38.08,0 178.59,0.03 179.64,0.08 0,0 -4.85,-3.19 -15.25,-7.7 -27.25,-15.63 -22.25,-40.8799996 12,-24.05 17.25,6.55 41.25,24.8 55,37.67 18.63,73.250003 30.13,45.380003 30.88,66.880003 6.21,118.66999 14.37,113.37 18.62,129.12 2.88,8 -1.68,9 -7.5,9 -0.1801,0 -60.87,0 -60.87,0 -21.5,-19.5 -26.5,-44.25 -26,-59.37 0,0 1.07,-16.81 1.07,-16.81 -3.26,0.78 -6.98,1.18 -11.2,1.18 0,0 -186,0 -186,0 -2.17,0 -4.21,-0.22001 -6.12,-0.64 -1.11,-0.24 1.3,21.73 -19.88,47.64 -6.36,13.09 -16.45,28 -23.18,28 0,0 -60.7601,0 -66.76004,0 -2.68001,0 -4.40001,-6.87001 -0.15012,-10.18 18.50006,-14 24.84006,-98.32 25.76006,-122.49 0.71,-7.14 -1.5401,-18.83 12.08,-27.08 9.38,-3.75001 17.5,-16.500003 31.25,-49.070013 1.13,-3.17999 6.45,-12.35999 64.33,-33.17999 5.12,-2.18 32.85,-2.27 10.58,19.73 -9.1,7.77 -18.3,11.27 -18.3,11.27 z"
     style="fill:#ffffff;fill-opacity:1;fill-rule:evenodd;stroke:none" />
</svg>
