<?xml version="1.0" encoding="UTF-8" standalone="no"?>
<!-- Created with Inkscape (http://www.inkscape.org/) -->

<svg
   xmlns:dc="http://purl.org/dc/elements/1.1/"
   xmlns:cc="http://creativecommons.org/ns#"
   xmlns:rdf="http://www.w3.org/1999/02/22-rdf-syntax-ns#"
   xmlns:svg="http://www.w3.org/2000/svg"
   xmlns="http://www.w3.org/2000/svg"
   xmlns:inkscape="http://www.inkscape.org/namespaces/inkscape"
   version="1.1"
   width="362.5"
   height="100"
   id="svg2"
   xml:space="preserve"><metadata
     id="metadata8"><rdf:RDF><cc:Work
         rdf:about=""><dc:format>image/svg+xml</dc:format><dc:type
           rdf:resource="http://purl.org/dc/dcmitype/StillImage" /></cc:Work></rdf:RDF></metadata><defs
     id="defs6" /><g
     transform="matrix(1.25,0,0,-1.25,0,100)"
     id="g10"><g
       transform="scale(0.1,0.1)"
       id="g12"><path
         d="m 6.26562,1.67578 2891.31998,0 0,793.73 -2891.31998,0 0,-793.73 z"
         inkscape:connector-curvature="0"
         id="path14"
         style="fill:#ffffff;fill-opacity:1;fill-rule:evenodd;stroke:none" /><path
         d="m 6.26562,1.67578 2891.31998,0 0,793.73 -2891.31998,0 0,-793.73 z"
         inkscape:connector-curvature="0"
         id="path16"
         style="fill:#ffffff;fill-opacity:1;fill-rule:evenodd;stroke:none" /><path
         d="m 119.652,115.082 566.852,0 0,566.922 -566.852,0 0,-566.922 z"
         inkscape:connector-curvature="0"
         id="path18"
         style="fill:#b31c18;fill-opacity:1;fill-rule:evenodd;stroke:none" /><path
         d="M 320.719,501.066 C 322,436.539 353.078,386.379 417.129,382.332 l 0.008,18.07 c -51.852,1.66 -90.621,52.825 -95.36,100.664 l -1.058,0 z m -10.313,-10.304 c -3.543,0 -6.437,3.05 -6.437,6.8 0,3.75 2.894,6.805 6.437,6.805 3.543,0 6.434,-3.055 6.434,-6.805 0,-3.75 -2.891,-6.8 -6.434,-6.8 z m 21.832,1.953 c -3.543,0 -6.437,3.051 -6.437,6.805 0,3.75 2.894,6.804 6.437,6.804 3.543,0 6.434,-3.054 6.434,-6.804 0,-3.754 -2.891,-6.805 -6.434,-6.805 z m -11.82,11.961 c -3.551,0 -6.441,3.062 -6.441,6.808 0,3.743 2.89,6.809 6.441,6.809 3.539,0 6.43,-3.066 6.43,-6.809 0,-3.746 -2.891,-6.808 -6.43,-6.808 z m 96.656,-332.906 -0.105,0 c -4.379,10.289 -7.02,19.98 -8.297,27.503 -0.961,5.633 -1.281,10.602 -1.238,14.981 0.031,4.383 0.429,8.211 0.836,11.582 0.808,6.766 1.757,11.781 0.292,16.082 -2.089,1.199 -13.601,-13.309 -21.281,-14.5 -12.754,-1.98 -14.109,7.625 -23.496,11.215 6.887,2.625 12.012,2.074 18.027,5.179 5.211,2.692 8.868,8.184 14.633,9.844 3.985,1.149 8.617,0.692 13.551,-1.871 1.734,0 0.422,3.485 -1.09,8.09 -1.172,3.57 -2.871,7.957 -2.949,11.738 -0.07,3.379 1.215,6.274 4.039,8.121 -2.867,4.93 -4.664,9.879 -4.922,13.465 -0.59,8.242 2.117,12.555 1.785,18.453 -0.238,4.219 -0.152,10.348 -1.761,12.657 -6.2,-2.368 -16.465,-37.383 -17.282,-43.969 l -9.015,5.453 -5.602,-9.82 c -2.129,-3.731 8.629,-14.879 -2.883,-20.903 l -0.421,0.27 c 1.082,3.301 1.136,6.246 -1.422,9.594 -4.321,5.652 -10.203,1.632 -18.563,7.285 -4.308,4.933 -10.066,5.355 -13.836,3.789 -2.594,-1.074 -4.57,-3.133 -4.797,-7.047 l -0.507,-0.211 c -2.461,5.539 -0.266,9.91 3.14,12.629 8.469,6.758 29.285,-3.91 31.582,0 l 5.219,8.867 -8.93,5.629 c 22.496,16.07 22.606,43.605 20.887,68.715 l -1.434,0.726 c -3.679,-23.113 -13.754,-40.515 -29.761,-52.832 -6.02,-4.632 -13.469,-8.91 -21.696,-1.937 9.891,6.637 19.731,20.449 22.973,32.055 3.172,11.367 4.539,24.586 4.066,39.293 l -1.171,1.003 c -4.473,-25.695 -18.434,-38.804 -27.786,-45.582 -6.625,-4.8 -14.589,-9.156 -21.886,-2.57 10.75,8.785 19.093,20.352 23.402,32.438 4.504,12.625 5.977,26.554 4.785,40.597 l -1.031,1.344 c -5.602,-23.945 -11.496,-35.805 -25.199,-46.234 -6.887,-5.246 -14.789,-8.293 -22.606,-1.235 14.235,10.879 20.086,20.547 24.11,37.16 3.972,16.414 6.367,30.477 6.128,48.864 l -1.046,3.769 c -5.414,-30.523 -13.825,-49.515 -23.676,-57.926 -6.652,-5.675 -15.309,-9.89 -20.481,-3.757 6.59,7.546 10.754,15.765 12.973,24.672 4.527,18.167 3.551,33.32 3.203,57.675 -0.226,15.903 1.492,31.075 8.949,44.539 7.661,13.828 24.707,17.293 37.114,13.68 20.207,-6.109 25.418,-30.082 15.879,-44.93 -5.043,-7.847 -4.254,-17.902 -1.571,-22.843 3.293,-6.059 10.11,-12.301 16.746,-17.661 5.993,-4.839 23.071,-16.675 33.692,-14.96 -0.492,6.214 1.191,13.007 3.254,19.91 2.062,6.894 4.519,13.922 5.566,20.582 0.949,6.05 0.164,13.187 -2.934,17.3 -3.585,3.641 -7.246,5.391 -10.851,6.649 -4.641,1.613 -7.356,2.367 -10.082,6.078 -1.43,1.945 -1.906,5.617 -2.215,9.574 2.445,-2.664 4.363,-4.48 6.551,-5.617 1.98,-1.027 7.758,-2.672 9.547,-0.609 -1.891,4.191 -5.356,7.777 -9.516,9.808 -5.547,2.715 -10.801,1.602 -14.887,-2.769 -1.16,4.371 -0.445,9.613 3.067,12.824 3.66,3.348 11.273,2.141 15.312,-0.023 -0.504,3.199 1.188,6.273 5.766,6.738 3.14,0.32 6.336,-0.586 9.301,-1.43 4.449,-1.265 7.804,-3.203 11.945,-5.41 L 417.074,171.77 z m -23.715,350.218 c 1.508,-0.734 2.977,-1.965 4.129,-3.25 1.68,-2.035 7.121,-1.023 10.219,-1.953 1.887,-0.57 2.773,-1.355 2.906,-1.008 -0.937,1.926 -1.601,3.856 -3.179,5.352 -3.43,3.262 -13.797,5.547 -14.075,0.859 z m 120.258,-20.922 c -1.285,-64.527 -32.359,-114.691 -96.41,-118.738 l -0.008,18.07 c 51.852,1.661 90.621,52.829 95.36,100.668 l 1.058,0 z m 10.313,-10.308 c 3.547,0 6.433,3.054 6.433,6.804 0,3.75 -2.886,6.805 -6.433,6.805 -3.539,0 -6.43,-3.055 -6.43,-6.805 0,-3.75 2.891,-6.804 6.43,-6.804 z m -21.828,1.957 c 3.539,0 6.433,3.051 6.433,6.805 0,3.746 -2.894,6.804 -6.433,6.804 -3.547,0 -6.438,-3.058 -6.438,-6.804 0,-3.754 2.891,-6.805 6.438,-6.805 z m 11.816,11.961 c 3.551,0 6.441,3.058 6.441,6.804 0,3.747 -2.89,6.809 -6.441,6.809 -3.539,0 -6.43,-3.062 -6.43,-6.809 0,-3.746 2.891,-6.804 6.43,-6.804 z m 78.391,43.07 c -1.434,-77.273 -2.7,-318.398 -174.93,-375.976 l -0.113,0 c 4.39,10.308 7.113,19.96 8.402,27.5 0.961,5.636 1.273,10.601 1.234,14.984 -0.027,4.383 -0.425,8.211 -0.836,11.582 -0.808,6.762 -1.757,11.781 -0.293,16.082 2.094,1.199 13.606,-13.309 21.278,-14.5 12.761,-1.98 14.113,7.621 23.5,11.211 -6.887,2.625 -12.012,2.078 -18.024,5.183 -5.211,2.688 -8.867,8.18 -14.632,9.844 -3.989,1.149 -8.618,0.692 -13.555,-1.875 -1.735,0 -0.418,3.489 1.094,8.094 1.168,3.566 2.867,7.957 2.945,11.734 0.07,3.379 -1.215,6.278 -4.039,8.125 2.871,4.93 4.668,9.875 4.922,13.465 0.593,8.242 -2.117,12.555 -1.785,18.449 0.238,4.223 0.152,10.348 1.765,12.657 6.199,-2.364 16.461,-37.383 17.281,-43.965 l 9.008,5.453 5.606,-9.82 c 2.129,-3.731 -8.633,-14.879 2.879,-20.903 l 0.425,0.266 c -1.082,3.301 -1.136,6.246 1.426,9.594 4.317,5.652 10.203,1.636 18.559,7.289 4.308,4.933 10.066,5.351 13.832,3.789 2.597,-1.078 4.578,-3.133 4.801,-7.047 l 0.507,-0.215 c 2.465,5.539 0.266,9.914 -3.14,12.633 -8.469,6.754 -29.281,-3.914 -31.582,0 l -5.215,8.867 8.926,5.629 c -22.493,16.07 -22.606,43.605 -20.887,68.715 l 1.437,0.722 c 3.68,-23.109 13.754,-40.511 29.758,-52.828 6.02,-4.632 13.465,-8.91 21.699,-1.937 -9.894,6.637 -19.734,20.445 -22.972,32.051 -3.176,11.367 -4.543,24.586 -4.067,39.293 l 1.168,1.004 c 4.473,-25.692 18.434,-38.801 27.789,-45.583 6.622,-4.796 14.582,-9.156 21.883,-2.57 -10.75,8.789 -19.093,20.356 -23.398,32.442 -4.504,12.621 -5.981,26.55 -4.785,40.597 l 1.023,1.344 c 5.609,-23.949 11.5,-35.805 25.203,-46.238 6.891,-5.246 14.789,-8.289 22.61,-1.231 -14.239,10.879 -20.09,20.543 -24.11,37.156 -3.976,16.418 -6.371,30.477 -6.133,48.864 l 1.051,3.773 c 5.41,-30.527 13.821,-49.515 23.672,-57.926 6.656,-5.679 15.313,-9.89 20.481,-3.757 -6.586,7.546 -10.754,15.765 -12.969,24.668 -4.528,18.168 -3.555,33.32 -3.203,57.675 0.226,15.907 -1.496,31.075 -8.957,44.539 -7.657,13.829 -24.707,17.297 -37.106,13.68 -20.211,-6.105 -25.422,-30.078 -15.883,-44.926 5.043,-7.851 4.254,-17.906 1.571,-22.843 -3.293,-6.059 -10.11,-12.301 -16.746,-17.661 -5.993,-4.839 -23.071,-16.679 -33.688,-14.964 0.488,6.218 -1.191,13.007 -3.254,19.914 -2.07,6.89 -4.523,13.918 -5.57,20.582 -0.949,6.05 -0.168,13.187 2.933,17.3 3.586,3.637 7.247,5.391 10.856,6.645 4.637,1.617 7.351,2.367 10.078,6.082 1.43,1.941 1.902,5.617 2.215,9.57 -2.442,-2.66 -4.363,-4.48 -6.551,-5.613 -1.976,-1.027 -7.754,-2.672 -9.551,-0.613 1.895,4.191 5.364,7.777 9.516,9.812 5.551,2.715 10.809,1.602 14.891,-2.769 1.16,4.367 0.445,9.613 -3.067,12.82 -3.66,3.348 -11.269,2.141 -15.308,-0.019 0.5,3.195 -1.192,6.273 -5.77,6.738 -3.137,0.316 -6.336,-0.586 -9.301,-1.43 -4.449,-1.265 -7.804,-3.207 -11.945,-5.41 l -0.004,24.203 175.145,0 z M 440.977,521.988 c -1.512,-0.738 -2.977,-1.968 -4.125,-3.25 -1.684,-2.035 -7.122,-1.023 -10.223,-1.957 -1.887,-0.566 -2.777,-1.351 -2.906,-1.008 0.941,1.93 1.601,3.856 3.179,5.352 3.43,3.262 13.801,5.547 14.075,0.863 z M 249.836,171.77 l -1.574,0 -34.43,426.23 0.805,0 c 5.945,-16.598 21.898,-20.77 35.199,-11.309 l 0,-414.921 z m 342.473,416.5 0,-1.579 -342.473,0 c 12.066,12.161 7.488,31.27 -8.371,37.938 l 0,0.683 350.844,-37.042"
         inkscape:connector-curvature="0"
         id="path20"
         style="fill:#fbc589;fill-opacity:1;fill-rule:evenodd;stroke:none" /><path
         d="m 743.273,115.074 2040.92,0 0,5.66797 -2040.92,0 0,-5.66797 z"
         inkscape:connector-curvature="0"
         id="path22"
         style="fill:#231f20;fill-opacity:1;fill-rule:evenodd;stroke:none" /><path
         d="m 885.363,269.949 c 0,21.266 -15.16,33.867 -43.121,33.867 -11.812,0 -22.445,-1.378 -32.094,-1.378 -2.753,0 -5.707,0.195 -9.449,0.589 0.789,-20.476 1.184,-42.332 1.184,-65.957 0,-22.445 -0.395,-44.304 -1.184,-65.601 3.348,0.625 6.496,1.019 9.645,1.019 2.761,0 5.32,-0.394 8.074,-0.789 -0.789,13.781 -0.984,24.613 -0.984,32.489 l 0,27.562 c 6.105,-0.391 11.222,-0.391 14.57,-0.391 34.851,0 53.359,14.176 53.359,38.59 z m -18.113,-1.574 c 0,-20.082 -13.785,-30.125 -41.348,-30.125 -2.953,0 -5.711,0.195 -8.664,0.391 l 0,17.328 c 0,13.98 0.391,27.172 0.985,39.578 4.132,0.391 8.074,0.59 12.011,0.59 25.399,0 37.016,-7.09 37.016,-27.762 z m 111.438,-51.391 c 0,27.961 -18.899,47.059 -45.676,47.059 -25.992,0 -45.68,-19.098 -45.68,-47.059 0,-28.156 19.102,-47.285 45.68,-47.285 26.183,0 45.676,18.539 45.676,47.285 z m -16.536,-1.179 c 0,-26.383 -10.238,-40.164 -29.14,-40.164 -19.098,0 -29.34,14.175 -29.34,41.539 0,27.175 10.242,41.152 29.14,41.152 19.102,0 29.34,-14.57 29.34,-42.527 z m 53.548,-44.336 c -0.59,16.738 -0.78,45.09 -0.78,84.996 0,21.82 0,41.508 0.78,59.195 -2.56,-0.195 -5.51,-0.39 -8.26,-0.39 -2.37,0 -5.12,0.195 -7.682,0.39 0.782,-10.629 0.782,-23 0.782,-37.574 l 0,-50.531 c 0,-24.582 0,-43.254 -0.782,-56.086 2.562,0.429 5.122,0.625 7.682,0.625 2.75,0 5.51,-0.196 8.26,-0.625 z m 48.05,124.273 c 0,5.512 -4.34,9.649 -9.85,9.649 -5.31,0 -9.85,-4.137 -9.85,-9.649 0,-5.316 4.54,-9.648 9.85,-9.648 5.51,0 9.85,4.332 9.85,9.648 z m -1.97,-124.273 c -0.59,15.785 -0.99,31.765 -0.99,47.715 0,14.765 0.4,28.976 0.99,43.152 -2.37,-0.59 -5.12,-0.785 -7.88,-0.785 -2.56,0 -5.12,0.195 -7.87,0.785 0.59,-13.981 0.98,-28.387 0.98,-43.152 0,-15.95 -0.39,-31.93 -0.98,-47.715 2.75,0.625 5.31,1.019 7.87,1.019 2.76,0 5.51,-0.394 7.88,-1.019 z m 74.82,4.562 -1.38,4.332 c -5.51,-2.758 -10.04,-4.133 -13.39,-4.133 -12.21,0 -16.15,7.481 -16.15,24.45 0,17.519 0.79,32.32 0.79,44.527 0,0.984 0.2,4.332 0.39,9.648 1.97,0.196 4.34,0.196 6.9,0.196 4.92,0 10.83,-0.196 17.72,-0.59 l 0,1.574 c 0,2.363 0.19,4.527 0.59,6.301 -9.65,-0.785 -17.92,-0.984 -25.01,-0.984 l 0,12.566 c 0,1.973 0.2,6.894 0.59,15.129 -4.53,-2.164 -9.65,-3.742 -15.55,-4.723 0.2,-5.09 0.39,-10.406 0.39,-16.082 l 0,-6.496 c -3.94,0 -8.27,0.195 -12.2,0.59 0,-0.785 0.19,-1.774 0.19,-2.953 0,-1.574 -0.19,-3.348 -0.39,-5.117 3.34,0.39 6.7,0.589 10.04,0.589 l 1.97,0 0,-6.5 c 0,-25.234 -0.99,-42.757 -0.99,-52.406 0,-18.144 6.7,-26.445 24.62,-26.445 7.28,0 14.57,2.394 20.87,6.527 z m 86.63,46.27 c 0,26.972 -14.37,41.937 -38.79,41.937 -26.78,0 -44.3,-18.902 -44.3,-47.449 0,-27.762 18.31,-47.09 45.48,-47.09 11.82,0 22.65,3.774 32.68,11.059 l 0,2.363 c 0,2.164 0.2,4.723 0.4,7.285 -9.06,-8.863 -18.51,-12.996 -29.73,-12.996 -20.87,0 -32.29,13.981 -32.29,40.164 l 0,0.594 66.35,0 c 0,1.379 0.2,2.754 0.2,4.133 z m -15.55,2.558 -50.61,0 c 0.79,20.676 12.21,33.473 26.59,33.473 14.76,0 24.02,-11.023 24.02,-30.32 l 0,-3.153 z m 108.68,31.504 c -10.04,5.121 -20.48,7.68 -31.31,7.68 -28.75,0 -47.84,-18.707 -47.84,-47.254 0,-28.75 18.31,-47.285 45.09,-47.285 13.58,0 24.21,2.984 32.88,9.68 -0.2,1.179 -0.2,2.558 -0.2,3.937 0,1.969 0.2,4.332 0.4,7.086 -9.26,-9.449 -18.32,-13.977 -29.15,-13.977 -19.88,0 -33.47,15.356 -33.47,40.754 0,26.188 12.01,40.954 32.29,40.954 12.01,0 20.68,-5.903 26.19,-18.114 1.18,6.102 2.95,11.817 5.12,16.539 z m 93.92,-84.894 c -0.4,12.832 -0.79,22.679 -0.79,29.57 0,11.418 0.59,21.262 0.59,29.531 0,22.25 -10.24,33.473 -30.72,33.473 -12.79,0 -21.66,-5.316 -29.92,-17.523 0,9.253 -0.2,18.113 -0.2,26.351 0,12.371 0.2,26.711 0.59,42.789 -2.37,-0.39 -5.12,-0.785 -7.88,-0.785 -2.36,0 -5.11,0.395 -8.07,0.785 0.59,-22.574 0.99,-46.5 0.99,-71.898 0,-13.387 -0.2,-37.41 -0.99,-72.293 2.56,0.625 5.12,1.019 7.68,1.019 2.76,0 5.51,-0.394 8.07,-1.019 -0.19,10.469 -0.39,17.953 -0.39,22.48 l 0,13.781 c 0,16.145 0.39,27.368 3.74,34.063 4.33,8.269 11.62,12.602 20.68,12.602 16.34,0 21.85,-10.04 21.85,-31.7 0,-12.797 -0.39,-29.929 -0.99,-51.226 2.76,0.625 5.32,1.019 7.88,1.019 2.76,0 5.51,-0.394 7.88,-1.019 z m 104.94,0 c -0.4,10.863 -0.59,20.906 -0.59,30.355 0,9.059 0.39,18.508 0.39,27.961 0,23.035 -10.24,34.453 -30.71,34.453 -13,0 -22.85,-6.101 -30.13,-18.703 0,2.363 -0.2,4.727 -0.2,7.086 0,3.152 0.2,6.305 0.4,9.652 -2.36,-0.593 -4.92,-0.789 -7.68,-0.789 -2.36,0 -5.12,0.196 -7.87,0.789 0.78,-13.589 0.78,-27.961 0.78,-43.711 l 0,-13.585 c 0,-11.618 0,-22.645 -0.78,-33.508 2.75,0.625 5.31,1.019 7.87,1.019 2.76,0 5.51,-0.394 8.07,-1.019 -0.39,9.879 -0.39,21.691 -0.39,36.066 l 0,8.664 c 0,12.797 0.39,22.442 6.5,29.926 4.33,5.711 10.43,8.27 17.91,8.27 14.57,0 21.86,-9.45 21.86,-28.352 0,-22.84 -0.39,-41.152 -1.18,-54.574 2.75,0.625 5.31,1.019 7.87,1.019 2.56,0 5.32,-0.394 7.88,-1.019 z m 48.04,124.273 c 0,5.512 -4.33,9.649 -9.85,9.649 -5.31,0 -9.84,-4.137 -9.84,-9.649 0,-5.316 4.53,-9.648 9.84,-9.648 5.52,0 9.85,4.332 9.85,9.648 z m -1.97,-124.273 c -0.59,15.785 -0.99,31.765 -0.99,47.715 0,14.765 0.4,28.976 0.99,43.152 -2.36,-0.59 -5.12,-0.785 -7.88,-0.785 -2.55,0 -5.12,0.195 -7.87,0.785 0.59,-13.981 0.99,-28.387 0.99,-43.152 0,-15.95 -0.4,-31.93 -0.99,-47.715 2.75,0.625 5.32,1.019 7.87,1.019 2.76,0 5.52,-0.394 7.88,-1.019 z m 109.08,0 c -17.33,20.511 -32.49,38.066 -45.28,53.031 l 17.32,16.375 c 10.43,9.844 18.51,17.129 25,21.461 -2.75,-0.395 -5.7,-0.59 -8.46,-0.59 -2.76,0 -5.51,0.195 -8.47,0.59 -21.06,-26.809 -36.62,-39.215 -40.16,-39.215 -2.17,0 -3.15,1.18 -3.15,3.348 l 0,6.5 c 0,24.051 0.19,51.519 0.98,82.691 -2.56,-0.39 -5.31,-0.785 -8.07,-0.785 -2.56,0 -5.32,0.395 -8.08,0.785 0.79,-24.316 0.99,-48.238 0.99,-71.832 0,-18.539 -0.2,-42.562 -0.99,-72.359 2.76,0.625 5.52,1.019 8.08,1.019 2.76,0 5.51,-0.394 8.07,-1.019 -0.98,15 -0.98,26.617 -0.98,34.324 l 0,10.832 c 0,1.773 0,2.559 1.77,2.559 2.95,0 16.93,-15.555 40.76,-47.715 3.14,0.625 6.49,0.824 9.84,0.824 3.54,0 7.28,-0.199 10.83,-0.824 z m 88.8,3.183 -0.79,3.743 c -1.18,-0.2 -2.36,-0.2 -3.35,-0.2 -7.28,0 -8.46,3.547 -8.46,12.801 l 0,5.316 0.79,32.879 0,2.364 c 0,21.855 -8.47,32.289 -30.33,32.289 -12.01,0 -22.83,-3.739 -31.11,-10.828 l -0.39,-10.043 1.58,0 c 5.9,9.062 14.17,13.586 24.8,13.586 15.56,0 21.47,-8.266 21.47,-25.2 l 0,-4.136 c -4.93,-4.328 -16.54,-5.118 -33.48,-8.661 -15.16,-3.347 -22.44,-11.421 -22.44,-25.203 0,-14.964 9.45,-23.66 26.58,-23.66 11.02,0 20.67,4.559 28.74,13.028 1.18,-7.68 3.94,-11.223 10.63,-11.223 5.52,0 10.44,1.574 15.76,3.148 z m -26.19,19.692 c 0,-2.758 -0.2,-5.121 -3.35,-8.27 -5.12,-5.121 -12.99,-8.469 -19.29,-8.469 -10.64,0 -17.13,6.696 -17.13,18.313 0,15.16 12.01,18.707 39.77,23.234 l 0,-24.808 z m 269.74,108.683 c -2.16,-0.589 -4.33,-0.785 -6.49,-0.785 -2.17,0 -4.14,0.196 -6.11,0.785 -9.65,-37.605 -20.87,-74.82 -33.47,-111.246 -13.58,37.41 -25.79,74.625 -37.02,111.246 -2.16,-0.589 -4.33,-0.785 -6.3,-0.785 -2.16,0 -4.13,0.196 -6.29,0.785 -10.83,-39.773 -23.04,-77.379 -36.04,-113.211 -12.6,38.985 -23.62,76.786 -33.47,113.211 -2.95,-0.589 -6.1,-0.785 -9.06,-0.785 -3.15,0 -6.3,0.196 -9.25,0.785 14.96,-46.859 28.74,-90.57 41.15,-131.558 2.36,0.625 4.53,1.019 6.7,1.019 2.36,0 4.52,-0.394 6.69,-1.019 5.71,15.785 17.52,51.621 36.03,107.539 13.19,-36.625 25.2,-72.457 35.44,-107.735 2.36,0.821 4.53,1.02 6.89,1.02 2.36,0 4.53,-0.199 6.7,-0.824 14.37,42.957 28.74,86.668 43.9,131.558 z m 53.75,-40.754 c -3.15,0.59 -5.51,0.981 -7.28,0.981 -9.45,0 -17.13,-7.481 -24.02,-22.051 0,7.875 0.39,14.965 0.98,21.07 -2.56,-0.593 -5.31,-0.789 -8.07,-0.789 -2.56,0 -5.32,0.196 -8.27,0.789 0.79,-8.273 0.99,-17.523 0.99,-27.765 0,-28.156 -0.4,-49.223 -0.99,-62.809 2.56,0.395 4.92,0.594 7.29,0.594 2.75,0 5.7,-0.199 8.46,-0.824 -0.59,8.699 -0.98,21.691 -0.98,38.82 0,26.188 5.51,38.984 20.08,38.984 3.15,0 6.11,-0.785 9.25,-2.558 l 1.58,0.984 c 0,5.512 0.19,10.633 0.98,14.574 z m 100.42,-45.289 c 0,27.961 -18.9,47.059 -45.68,47.059 -25.99,0 -45.68,-19.098 -45.68,-47.059 0,-28.156 19.1,-47.285 45.68,-47.285 26.19,0 45.68,18.539 45.68,47.285 z m -16.54,-1.179 c 0,-26.383 -10.24,-40.164 -29.14,-40.164 -19.1,0 -29.33,14.175 -29.33,41.539 0,27.175 10.23,41.152 29.14,41.152 19.09,0 29.33,-14.57 29.33,-42.527 z m 109.08,40.558 c -10.04,5.121 -20.48,7.68 -31.31,7.68 -28.74,0 -47.84,-18.707 -47.84,-47.254 0,-28.75 18.31,-47.285 45.09,-47.285 13.58,0 24.21,2.984 32.88,9.68 -0.2,1.179 -0.2,2.558 -0.2,3.937 0,1.969 0.2,4.332 0.4,7.086 -9.26,-9.449 -18.32,-13.977 -29.15,-13.977 -19.89,0 -33.47,15.356 -33.47,40.754 0,26.188 12.01,40.954 32.29,40.954 12.01,0 20.67,-5.903 26.19,-18.114 1.18,6.102 2.95,11.817 5.12,16.539 z m 47.45,10.141 0,10.203 c -2.76,-2.359 -7.29,-6.266 -13.98,-10.992 l 0,2.168 c 0,18.277 0.39,35.57 0.98,47.777 -2.56,-0.195 -5.51,-0.39 -8.27,-0.39 -2.36,0 -5.11,0.195 -7.68,0.39 0.79,-15.914 0.99,-34.027 0.99,-54.472 l 0,-5.122 c -5.71,-3.937 -7.48,-5.117 -13.39,-8.66 l 0,-10.011 c 8.27,6.695 12.4,10.207 13.19,10.601 l 0,-27.926 c 0,-21.23 -0.39,-37.343 -0.79,-48.601 2.57,0.429 5.12,0.625 7.68,0.625 2.76,0 5.52,-0.196 8.27,-0.625 -0.59,12.242 -0.98,39.969 -0.98,86.176 5.9,3.738 7.48,4.921 13.98,8.859 z m 90.76,-91.852 -0.78,3.743 c -1.18,-0.2 -2.36,-0.2 -3.35,-0.2 -7.29,0 -8.47,3.547 -8.47,12.801 l 0,5.316 0.79,32.879 0,2.364 c 0,21.855 -8.46,32.289 -30.32,32.289 -12.01,0 -22.84,-3.739 -31.11,-10.828 l -0.39,-10.043 1.57,0 c 5.91,9.062 14.18,13.586 24.81,13.586 15.56,0 21.46,-8.266 21.46,-25.2 l 0,-4.136 c -4.92,-4.328 -16.54,-5.118 -33.47,-8.661 -15.16,-3.347 -22.44,-11.421 -22.44,-25.203 0,-14.964 9.45,-23.66 26.58,-23.66 11.02,0 20.67,4.559 28.74,13.028 1.18,-7.68 3.94,-11.223 10.63,-11.223 5.52,0 10.44,1.574 15.75,3.148 z m -26.18,19.692 c 0,-2.758 -0.2,-5.121 -3.35,-8.27 -5.12,-5.121 -12.99,-8.469 -19.29,-8.469 -10.64,0 -17.14,6.696 -17.14,18.313 0,15.16 12.02,18.707 39.78,23.234 l 0,-24.808 z m 172.08,67.992 c -1.77,-0.195 -3.74,-0.395 -5.71,-0.395 -1.97,0 -3.74,0.2 -5.9,0.395 -12.02,-35.277 -21.27,-58.707 -26.78,-70.16 -6.1,12.441 -14.77,35.867 -24.02,70.16 -1.97,-0.395 -3.94,-0.59 -5.72,-0.59 -1.77,0 -3.73,0.195 -5.7,0.59 -7.29,-25.629 -15.56,-49.059 -25.21,-70.356 -12.79,32.915 -20.67,56.375 -24.02,70.356 -2.95,-0.59 -5.9,-0.785 -8.66,-0.785 -2.95,0 -5.71,0.195 -8.46,0.785 18.5,-44.922 29.73,-75.277 33.47,-90.867 1.97,0.429 3.54,0.429 5.51,0.429 1.77,0 3.74,0 5.51,-0.429 3.94,16.57 11.82,39.84 24.22,69.601 14.77,-39.41 22.45,-62.476 23.63,-69.601 1.96,0.429 3.74,0.625 5.51,0.625 1.97,0 3.94,-0.196 5.91,-0.625 4.72,17.953 17.52,47.914 36.42,90.867 z m 63.99,-62.285 c 0,12.015 -5.91,18.312 -18.51,22.054 l -13.19,3.938 c -9.84,2.953 -14.57,7.285 -14.57,16.145 0,9.648 6.7,16.144 16.35,16.144 7.68,0 14.96,-4.332 22.25,-12.797 0.78,4.133 2.16,8.074 4.13,12.207 -6.5,3.938 -14.77,6.301 -24.03,6.301 -18.11,0 -29.53,-11.223 -29.53,-26.578 0,-13.59 6.3,-20.676 20.87,-24.813 l 8.86,-2.558 c 10.24,-2.754 15.16,-6.696 15.16,-15.75 0,-10.828 -7.28,-17.524 -18.7,-17.524 -9.25,0 -17.13,4.922 -23.43,14.766 -1.18,-4.922 -2.76,-9.844 -4.73,-14.961 6.7,-4.531 15.36,-6.926 25.01,-6.926 20.48,0 34.06,13.227 34.06,30.352 z m 97.86,-28.582 c -17.33,20.511 -32.49,38.066 -45.29,53.031 l 17.33,16.375 c 10.43,9.844 18.51,17.129 25,21.461 -2.75,-0.395 -5.71,-0.59 -8.46,-0.59 -2.76,0 -5.52,0.195 -8.47,0.59 -21.07,-26.809 -36.62,-39.215 -40.16,-39.215 -2.17,0 -3.16,1.18 -3.16,3.348 l 0,6.5 c 0,24.051 0.2,51.519 0.99,82.691 -2.56,-0.39 -5.32,-0.785 -8.07,-0.785 -2.56,0 -5.32,0.395 -8.08,0.785 0.79,-24.316 0.99,-48.238 0.99,-71.832 0,-18.539 -0.2,-42.562 -0.99,-72.359 2.76,0.625 5.52,1.019 8.08,1.019 2.75,0 5.51,-0.394 8.07,-1.019 -0.99,15 -0.99,26.617 -0.99,34.324 l 0,10.832 c 0,1.773 0,2.559 1.78,2.559 2.95,0 16.93,-15.555 40.75,-47.715 3.15,0.625 6.5,0.824 9.84,0.824 3.55,0 7.29,-0.199 10.84,-0.824 z m 88.79,3.183 -0.78,3.743 c -1.19,-0.2 -2.36,-0.2 -3.35,-0.2 -7.28,0 -8.47,3.547 -8.47,12.801 l 0,5.316 0.79,32.879 0,2.364 c 0,21.855 -8.47,32.289 -30.32,32.289 -12.01,0 -22.84,-3.739 -31.11,-10.828 l -0.39,-10.043 1.57,0 c 5.91,9.062 14.18,13.586 24.81,13.586 15.55,0 21.46,-8.266 21.46,-25.2 l 0,-4.136 c -4.92,-4.328 -16.54,-5.118 -33.47,-8.661 -15.16,-3.347 -22.44,-11.421 -22.44,-25.203 0,-14.964 9.45,-23.66 26.57,-23.66 11.03,0 20.68,4.559 28.75,13.028 1.18,-7.68 3.94,-11.223 10.63,-11.223 5.52,0 10.44,1.574 15.75,3.148 z M 2758,194.344 c 0,-2.758 -0.2,-5.121 -3.35,-8.27 -5.12,-5.121 -12.99,-8.469 -19.29,-8.469 -10.64,0 -17.14,6.696 -17.14,18.313 0,15.16 12.02,18.707 39.78,23.234 l 0,-24.808"
         inkscape:connector-curvature="0"
         id="path24"
         style="fill:#231f20;fill-opacity:1;fill-rule:nonzero;stroke:none" /></g></g></svg>