<?xml version="1.0" encoding="UTF-8" standalone="no"?>
<!-- Created with Inkscape (http://www.inkscape.org/) -->

<svg
   xmlns:dc="http://purl.org/dc/elements/1.1/"
   xmlns:cc="http://creativecommons.org/ns#"
   xmlns:rdf="http://www.w3.org/1999/02/22-rdf-syntax-ns#"
   xmlns:svg="http://www.w3.org/2000/svg"
   xmlns="http://www.w3.org/2000/svg"
   xmlns:inkscape="http://www.inkscape.org/namespaces/inkscape"
   version="1.1"
   width="470.33749"
   height="427.29999"
   id="svg2"
   xml:space="preserve"><metadata
     id="metadata8"><rdf:RDF><cc:Work
         rdf:about=""><dc:format>image/svg+xml</dc:format><dc:type
           rdf:resource="http://purl.org/dc/dcmitype/StillImage" /></cc:Work></rdf:RDF></metadata><defs
     id="defs6"><clipPath
       id="clipPath18"><path
         d="m 0,0 3762.68,0 0,3418 L 0,3418 0,0 z"
         inkscape:connector-curvature="0"
         id="path20" /></clipPath></defs><g
     transform="matrix(1.25,0,0,-1.25,0,427.3)"
     id="g10"><g
       transform="scale(0.1,0.1)"
       id="g12"><g
         id="g14"><g
           clip-path="url(#clipPath18)"
           id="g16"><path
             d="M 1893.43,329.941 1495.9,727.531 1723.63,955.27 2121.17,557.742 1893.43,329.941 z M 3747.4,2237.74 c -20.97,-73.78 -64.85,-148.53 -137.04,-220.75 -224.36,-224.31 -473.94,-177.19 -639.51,-11.51 -89.19,89.12 -143.57,202.29 -139.99,322.71 l -491.22,0 179.04,-178.98 121.94,121.91 140.31,-140.35 -121.94,-121.91 208.23,-208.21 c 55.17,-55.19 91.95,-66.71 149.5,-9.21 17.25,17.25 33.33,35.65 48.3,55.19 l 172.52,-172.49 c -46,-46.01 -90.88,-104.7 -139.12,-153.01 -96.65,-96.63 -218.54,-188.67 -381.92,-25.3 l -285.28,285.28 -96.45,-96.48 c 83.66,-28.35 167.1,-85.4 250.23,-168.52 l -437.18,-437.12 c 73.63,-62.07 161.44,-71.67 233.59,-1.21 30.44,29.77 63.38,82.98 39.87,145.86 l 217.62,217.65 c 92.81,-175.45 27.22,-374.34 -108.51,-510.06 -191.01,-191.019 -450.42,-219.191 -649.42,-20.171 -62.47,62.472 -104.69,135.471 -123.96,214.331 l -203.29,0.19 -0.15,-0.2 111.46,-111.53 -227.66,-227.748 -141.06,141.078 -368.283,0 184.263,-184.36 121.97,122.012 140.3,-140.434 -121.93,-121.898 208.2,-208.211 c 55.2,-55.168 92.04,-66.66 149.53,-9.16 17.27,17.223 33.38,35.609 48.32,55.18 l 172.57,-172.5 C 1785.2,221.762 1740.36,163.102 1692.06,114.82 1653.07,75.8086 1609.91,37.7422 1561.61,16.6992 L 1519.97,0 l 2242.71,0 0,2294.33 -15.28,-56.59 z m -1499.46,-821.7 c -55.24,55.23 -141.53,58.69 -200.2,0 -67.87,-67.86 -71.28,-142.62 -17.2,-217.37 l 217.4,217.37 z m 1196.73,766.56 c 86.32,86.32 12.65,182.92 -50.61,246.18 -63.22,63.28 -158.65,135.75 -244.99,49.5 -86.3,-86.3 -13.81,-181.77 49.43,-245.03 63.36,-63.29 159.98,-136.89 246.17,-50.65"
             inkscape:connector-curvature="0"
             id="path22"
             style="fill:#ed1960;fill-opacity:1;fill-rule:nonzero;stroke:none" /></g></g></g></g></svg>