<?xml version="1.0" encoding="UTF-8"?>
<!DOCTYPE svg PUBLIC "-//W3C//DTD SVG 1.1//EN" "http://www.w3.org/Graphics/SVG/1.1/DTD/svg11.dtd">
<!-- Creator: CorelDRAW -->
<svg xmlns="http://www.w3.org/2000/svg" xml:space="preserve" width="127.353mm" height="35.9832mm" style="shape-rendering:geometricPrecision; text-rendering:geometricPrecision; image-rendering:optimizeQuality; fill-rule:evenodd; clip-rule:evenodd"
viewBox="0 0 127.353 35.9832"
 xmlns:xlink="http://www.w3.org/1999/xlink">
 <defs>
  <style type="text/css">
   <![CDATA[
    .str1 {stroke:#56698F;stroke-width:0.3569}
    .str3 {stroke:#E03929;stroke-width:0.8927}
    .str0 {stroke:#FEFEFE;stroke-width:1.0713}
    .str2 {stroke:#FEFEFE;stroke-width:2.1433}
    .fil1 {fill:none}
    .fil0 {fill:#56698F}
   ]]>
  </style>
 </defs>
 <g id="Layer_x0020_1">
  <metadata id="CorelCorpID_0Corel-Layer"/>
  <path class="fil0" d="M60.5621 25.1231c0,2.0867 -0.635,3.8107 -1.7237,5.0809 -1.1797,1.2702 -2.722,1.9053 -4.7181,1.9053 -1.996,0 -3.6293,-0.6351 -4.8997,-1.9053 -1.27,-1.361 -1.905,-2.9942 -1.905,-4.9902 0,-1.9961 0.635,-3.6294 1.905,-4.9903 1.2704,-1.2703 2.9037,-1.9055 4.8091,-1.9055 1.1793,0 2.268,0.1815 3.1753,0.6352 0.9984,0.4538 1.7241,1.1796 2.3591,2.0867l-1.0887 0.8168c-0.4537,-0.726 -1.0887,-1.2703 -1.9054,-1.6332 -0.726,-0.3629 -1.5423,-0.5444 -2.4497,-0.5444 -1.5427,0 -2.8127,0.5444 -3.8107,1.6331 -0.998,0.9982 -1.4516,2.359 -1.4516,3.9924 0,1.5423 0.4536,2.8125 1.4516,3.8105 0.998,1.0889 2.268,1.6332 3.8107,1.6332 1.2704,0 2.3587,-0.4536 3.2664,-1.2702 0.9074,-0.7258 1.4517,-1.8146 1.5424,-2.9942l-4.1738 0 0 -1.3608 5.8068 0z"/>
  <path class="fil0" d="M72.5385 22.2197c0,-0.8166 -0.272,-1.361 -0.7256,-1.724 -0.4537,-0.3629 -1.2704,-0.5444 -2.2684,-0.5444l-1.1793 0 0 4.355 1.1793 0c0.998,0 1.8147,-0.1814 2.2684,-0.5443 0.4536,-0.2721 0.7256,-0.8166 0.7256,-1.5423zm2.1781 9.6173l-1.8151 0 -4.0827 -6.2603 -0.4536 0 0 6.2603 -1.4517 0 0 -13.2465 2.7217 0c1.452,0 2.5407,0.272 3.2663,0.9071 0.726,0.6352 1.0891,1.4517 1.0891,2.6313 0,0.9979 -0.2724,1.8146 -0.9074,2.4497 -0.6353,0.6352 -1.5427,0.9074 -2.6314,0.9074l4.2648 6.351z"/>
  <path class="fil0" d="M92.2274 25.2138c0,-1.5426 -0.5443,-2.9034 -1.5423,-3.9016 -1.0891,-1.0887 -2.3591,-1.6331 -3.9924,-1.6331 -1.633,0 -2.9034,0.5444 -3.9014,1.6331 -0.998,1.0888 -1.5423,2.359 -1.5423,3.9016 0,1.5424 0.5443,2.8127 1.5423,3.9013 1.0887,1.0889 2.359,1.6332 3.9014,1.6332 1.6333,0 2.9033,-0.5443 3.9017,-1.6332 1.0887,-1.0886 1.633,-2.3589 1.633,-3.9013zm1.4517 0c0,1.9052 -0.635,3.5385 -1.996,4.8994 -1.3611,1.361 -2.9941,1.9961 -4.9904,1.9961 -1.9054,0 -3.5384,-0.6351 -4.8994,-1.9961 -1.361,-1.3609 -1.996,-2.9942 -1.996,-4.8994 0,-1.9961 0.635,-3.6294 1.996,-4.9903 1.2703,-1.2703 2.994,-1.9055 4.8994,-1.9055 1.9963,0 3.72,0.6352 4.9904,1.9055 1.361,1.3609 1.996,2.9942 1.996,4.9903z"/>
  <path class="fil0" d="M109.376 26.8469c0,1.8146 -0.363,3.0848 -1.1797,3.9923 -0.7257,0.8165 -1.9054,1.2701 -3.4477,1.2701 -1.5424,0 -2.7217,-0.4536 -3.5384,-1.2701 -0.7256,-0.9075 -1.1797,-2.1777 -1.1797,-3.9923l0 -8.2564 1.5427 0 0 8.6193c0,1.1793 0.272,2.0868 0.7257,2.6313 0.5443,0.5444 1.361,0.9072 2.4497,0.9072 1.089,0 1.8147,-0.2722 2.359,-0.9072 0.5447,-0.5445 0.8167,-1.452 0.8167,-2.6313l0 -8.6193 1.4517 0 0 8.2564z"/>
  <path class="fil0" d="M121.806 22.3104c0,-0.8165 -0.272,-1.4517 -0.7257,-1.8147 -0.5447,-0.3629 -1.361,-0.5444 -2.4497,-0.5444l-0.6353 0 0 4.6273 0.6353 0c1.1794,0 1.9961,-0.1815 2.4497,-0.5445 0.4537,-0.3629 0.7257,-0.9073 0.7257,-1.7237zm1.4517 0c0,1.1795 -0.3627,2.0867 -1.1794,2.7219 -0.8166,0.635 -1.996,0.9073 -3.5387,0.9073l-0.5443 0 0 5.8974 -1.5423 0 0 -13.2465 2.1776 0c1.5424,0 2.7217,0.272 3.4477,0.9071 0.8167,0.6352 1.1794,1.5423 1.1794,2.8128z"/>
  <path class="fil0" d="M59.4734 3.8012l-1.0887 5.8067c-0.2723,1.6334 -0.5443,3.1757 -0.8167,4.8088l0 0c-0.1813,-1.6331 -0.4536,-3.0849 -0.7256,-4.718l-1.089 -5.8975 -2.5404 0 -1.2704 5.8067c-0.2719,1.7239 -0.635,3.2663 -0.8163,4.8088l-0.091 0c-0.1813,-1.4516 -0.4537,-3.0849 -0.7257,-4.718l-0.998 -5.8975 -2.722 0 2.9034 13.6097 2.722 0 1.2703 -5.8069c0.3627,-1.361 0.635,-2.722 0.8167,-4.2644l0 0c0.181,1.5424 0.4533,2.9034 0.7257,4.2644l1.0887 5.8069 2.722 0 3.1753 -13.6097 -2.5403 0zm4.083 13.6097l2.5404 0 0 -13.6097 -2.5404 0 0 13.6097zm11.3415 -6.5328c1.27,-0.4536 2.268,-1.6331 2.268,-3.357 0,-3.6293 -3.357,-3.8107 -4.99,-3.8107 -1.3611,0 -2.5407,0.0908 -3.4477,0.2721l0 13.4284 2.5403 0 0 -5.5346 0.8167 0c1.27,0 1.8147,0.5443 2.0867,2.2681 0.363,1.6334 0.635,2.8127 0.9073,3.2665l2.5404 0c-0.1813,-0.5445 -0.5444,-2.1776 -0.907,-3.8108 -0.3634,-1.361 -0.9077,-2.2683 -1.8147,-2.6311l0 -0.0909zm-3.6294 -0.9072l0 -4.1736c0.1813,-0.0908 0.5444,-0.0908 1.1794,-0.0908 0.9073,0 2.1777,0.3629 2.1777,2.0869 0,1.2702 -0.9074,2.1775 -2.3591,2.1775l-0.998 0zm15.5152 5.2624l-4.8997 0 0 -3.8108 4.3554 0 0 -2.1775 -4.3554 0 0 -3.2663 4.6273 0 0 -2.1775 -7.1677 0 0 13.6097 7.4401 0 0 -2.1776zm9.2544 -0.0907l-4.718 0 0 -11.3414 -2.6311 0 0 13.6097 7.3491 0 0 -2.2683zm9.1641 0.0907l-4.8997 0 0 -3.8108 4.355 0 0 -2.1775 -4.355 0 0 -3.2663 4.6274 0 0 -2.1775 -7.1678 0 0 13.6097 7.4401 0 0 -2.1776zm8.9821 -10.9786c-0.635,-0.3629 -1.633,-0.635 -2.9034,-0.635 -2.8127,0 -4.5367,1.7238 -4.5367,3.9014 0,1.8146 1.2707,3.0849 3.2664,3.9922 1.452,0.6351 2.087,1.1795 2.087,2.1776 0,0.9981 -0.7257,1.6332 -2.1777,1.6332 -1.0887,0 -2.1773,-0.2723 -2.8127,-0.7259l-0.5443 2.1775c0.6353,0.4537 1.9963,0.8165 3.2663,0.8165 3.0847,0 4.8088,-1.7238 4.8088,-4.1736 0,-1.7238 -0.9074,-2.9941 -3.0847,-3.9922 -1.5427,-0.7258 -2.2684,-1.1794 -2.2684,-2.1776 0,-0.7257 0.635,-1.4515 1.996,-1.4515 1.0891,0 1.9054,0.3629 2.3591,0.5444l0.5443 -2.087zm9.4361 0c-0.635,-0.3629 -1.5424,-0.635 -2.8127,-0.635 -2.9034,0 -4.627,1.7238 -4.627,3.9014 0,1.8146 1.27,3.0849 3.266,3.9922 1.452,0.6351 2.087,1.1795 2.087,2.1776 0,0.9981 -0.726,1.6332 -2.087,1.6332 -1.0887,0 -2.1774,-0.2723 -2.9034,-0.7259l-0.5443 2.1775c0.635,0.4537 1.996,0.8165 3.2663,0.8165 3.1758,0 4.8994,-1.7238 4.8994,-4.1736 0,-1.7238 -0.998,-2.9941 -3.0847,-3.9922 -1.6333,-0.7258 -2.2683,-1.1794 -2.2683,-2.1776 0,-0.7257 0.5443,-1.4515 1.9053,-1.4515 1.0887,0 1.9054,0.3629 2.3591,0.5444l0.5443 -2.087z"/>
  <path class="fil1 str0" d="M9.8435 23.5806c0.5443,1.724 2.2681,3.5384 2.9939,3.5384 0.363,-0.0907 2.2684,-1.633 2.9942,-3.4478 0.5445,-1.7238 2.0869,-3.9921 2.9035,-4.0829 1.2703,0 1.996,3.085 2.4496,4.1737 1.5426,3.8108 2.0869,7.7122 3.1756,7.7122 1.0889,0 1.4517,-2.5404 2.5407,-6.8049 1.9052,-7.1678 1.9961,-14.154 5.8974,-20.3237 0.9073,-1.4518 2.5404,2.9032 2.9941,4.4456 1.361,5.0811 2.5407,9.9808 3.72,16.2411 0.5444,3.1757 1.4517,6.351 2.4497,6.351 0.726,0 1.4517,-1.8144 2.2684,-4.5364 0.0906,-0.635 0.363,-1.5423 0.8167,-2.9034"/>
  <path class="fil1 str1" d="M9.8435 23.5806c0.5443,1.724 2.2681,3.5384 2.9939,3.5384 0.363,-0.0907 2.2684,-1.633 2.9942,-3.4478 0.5445,-1.7238 2.0869,-3.9921 2.9035,-4.0829 1.2703,0 1.996,3.085 2.4496,4.1737 1.5426,3.8108 2.0869,7.7122 3.1756,7.7122 1.0889,0 1.4517,-2.5404 2.5407,-6.8049 1.9052,-7.1678 1.9961,-14.154 5.8974,-20.3237 0.9073,-1.4518 2.5404,2.9032 2.9941,4.4456 1.361,5.0811 2.5407,9.9808 3.72,16.2411 0.5444,3.1757 1.4517,6.351 2.4497,6.351 0.726,0 1.4517,-1.8144 2.2684,-4.5364 0.0906,-0.635 0.363,-1.5423 0.8167,-2.9034"/>
  <path class="fil1 str0" d="M4.218 24.2156c0.4537,1.724 2.0868,3.1757 2.8128,3.0849 0.3628,0 2.2682,-1.6332 2.9939,-3.4478 0.5446,-1.7238 2.0869,-3.9921 2.9035,-3.9921 1.2703,0 1.9961,2.9942 2.4499,4.0829 1.5423,3.8106 2.0867,7.8028 3.1755,7.7122 1.0887,0 1.4518,-2.5406 2.5404,-6.7141 1.9053,-7.2586 1.9961,-14.1543 5.8976,-20.3239 0.9072,-1.5424 2.5406,2.8126 2.9941,4.3552 1.3609,5.1715 2.5404,9.9803 3.72,16.3317 0.5445,3.1754 1.4518,6.3511 2.4498,6.3511 0.726,0 1.4517,-1.9055 2.2684,-4.5367 0.3626,-1.4517 1.8143,-6.8955 3.629,-7.1677 0.4536,0 0.9073,0.7259 1.361,1.3609 0.4537,0.5445 1.089,1.6332 1.6334,2.7219"/>
  <path class="fil1 str1" d="M4.218 24.2156c0.4537,1.724 2.0868,3.1757 2.8128,3.0849 0.3628,0 2.2682,-1.6332 2.9939,-3.4478 0.5446,-1.7238 2.0869,-3.9921 2.9035,-3.9921 1.2703,0 1.9961,2.9942 2.4499,4.0829 1.5423,3.8106 2.0867,7.8028 3.1755,7.7122 1.0887,0 1.4518,-2.5406 2.5404,-6.7141 1.9053,-7.2586 1.9961,-14.1543 5.8976,-20.3239 0.9072,-1.5424 2.5406,2.8126 2.9941,4.3552 1.3609,5.1715 2.5404,9.9803 3.72,16.3317 0.5445,3.1754 1.4518,6.3511 2.4498,6.3511 0.726,0 1.4517,-1.9055 2.2684,-4.5367 0.3626,-1.4517 1.8143,-6.8955 3.629,-7.1677 0.4536,0 0.9073,0.7259 1.361,1.3609 0.4537,0.5445 1.089,1.6332 1.6334,2.7219"/>
  <path class="fil1 str0" d="M4.218 24.2156c0.5445,-1.6331 2.2683,-4.2643 2.9942,-4.2643 1.2702,-0.0907 2.0868,2.9941 2.5404,4.0828 1.5425,3.8109 2.0869,7.7122 3.1756,7.7122 0.9981,0 1.4518,-2.5404 2.5404,-6.8047 1.8148,-7.1679 1.9962,-14.1543 5.8069,-20.2332 0.9981,-1.5424 2.6313,2.8127 2.9942,4.3552 1.4516,5.0808 2.5405,9.9804 3.7199,16.3316 0.6351,3.0848 1.5426,6.2605 2.5404,6.2605 0.726,0.0906 1.4518,-1.8146 2.1776,-4.5367 0.4538,-1.4517 1.9053,-6.8047 3.7202,-7.0769 0.4537,-0.0908 0.907,0.7258 1.3611,1.2701 1.0886,1.3611 2.903,6.0791 4.627,6.0791 1.2703,-0.0908 2.1777,-2.722 2.6314,-3.3572"/>
  <path class="fil1 str1" d="M4.218 24.2156c0.5445,-1.6331 2.2683,-4.2643 2.9942,-4.2643 1.2702,-0.0907 2.0868,2.9941 2.5404,4.0828 1.5425,3.8109 2.0869,7.7122 3.1756,7.7122 0.9981,0 1.4518,-2.5404 2.5404,-6.8047 1.8148,-7.1679 1.9962,-14.1543 5.8069,-20.2332 0.9981,-1.5424 2.6313,2.8127 2.9942,4.3552 1.4516,5.0808 2.5405,9.9804 3.7199,16.3316 0.6351,3.0848 1.5426,6.2605 2.5404,6.2605 0.726,0.0906 1.4518,-1.8146 2.1776,-4.5367 0.4538,-1.4517 1.9053,-6.8047 3.7202,-7.0769 0.4537,-0.0908 0.907,0.7258 1.3611,1.2701 1.0886,1.3611 2.903,6.0791 4.627,6.0791 1.2703,-0.0908 2.1777,-2.722 2.6314,-3.3572"/>
  <path class="fil1 str2" d="M4.218 24.0156c1.5425,3.9015 1.5425,7.5307 2.6313,7.4401 0.9981,0 1.4516,-2.5406 2.5404,-6.7141 1.8146,-7.2586 1.9961,-14.1543 5.8976,-20.3239 0.9073,-1.5424 2.5404,2.8126 2.994,4.3552 1.361,5.1715 2.5406,9.9803 3.7202,16.3317 0.5442,3.1754 1.4516,6.3511 2.4496,6.3511 0.7258,0 1.4517,-1.9055 2.1776,-4.5367 0.4535,-1.4517 1.9052,-6.8955 3.72,-7.1677 0.4536,0 0.9073,0.7259 1.3609,1.3609 1.0888,1.3611 2.9033,5.9883 4.6272,5.9883 1.2704,0 2.6314,-3.357 3.1757,-3.9014 1.0887,-1.3609 1.8147,-2.3592 2.4497,-2.4498 0.8167,-0.0906 1.9964,1.3611 3.0851,3.0848"/>
  <path class="fil1 str3" d="M4.218 24.2156c1.5425,3.9015 1.5425,7.5307 2.6313,7.4401 0.9981,0 1.4516,-2.5406 2.5404,-6.7141 1.8146,-7.2586 1.9961,-14.1543 5.8976,-20.3239 0.9073,-1.5424 2.5404,2.8126 2.994,4.3552 1.361,5.1715 2.5406,9.9803 3.7202,16.3317 0.5442,3.1754 1.4516,6.3511 2.4496,6.3511 0.7258,0 1.4517,-1.9055 2.1776,-4.5367 0.4535,-1.4517 1.9052,-6.8955 3.72,-7.1677 0.4536,0 0.9073,0.7259 1.3609,1.3609 1.0888,1.3611 2.9033,5.9883 4.6272,5.9883 1.2704,0 2.6314,-3.357 3.1757,-3.9014 1.0887,-1.3609 1.8147,-2.3592 2.4497,-2.4498 0.8167,-0.0906 1.9964,1.3611 3.0851,3.0848"/>
 </g>
</svg>
